<svg width="32" height="32" fill="none" xmlns="http://www.w3.org/2000/svg"><path d="M6.25 9.5a7.25 7.25 0 0114.5 0 .75.75 0 11-1.5 0 5.75 5.75 0 10-11.5 0 .75.75 0 11-1.5 0zm17.25 5.75c-.65 0-1.286.195-1.824.561a3.25 3.25 0 00-4.926-2.049V9.5a3.25 3.25 0 10-6.5 0v10.875l-.941-1.512a3.252 3.252 0 00-5.625 3.266l3.665 6.25a.75.75 0 001.296-.754l-3.661-6.25a1.75 1.75 0 113.044-1.729l2.335 3.75A.749.749 0 0011.75 23V9.5a1.75 1.75 0 113.5 0V18a.75.75 0 101.5 0v-1.5a1.75 1.75 0 113.5 0V19a.75.75 0 101.5 0v-.5a1.75 1.75 0 113.5 0V23c0 2.766-.912 4.648-.921 4.665a.75.75 0 00.336 1 .729.729 0 00.73-.027.751.751 0 00.278-.303c.043-.088 1.078-2.194 1.078-5.335v-4.5a3.25 3.25 0 00-3.25-3.25z" fill="#222"/></svg>