<svg width="32" height="32" fill="none" xmlns="http://www.w3.org/2000/svg"><path d="M18.889 20.766A4.751 4.751 0 0016 12.246a4.75 4.75 0 00-2.889 8.52A8.218 8.218 0 009.4 23.55a.75.75 0 001.2.9 6.75 6.75 0 0110.8 0 .75.75 0 001.2-.9 8.218 8.218 0 00-3.711-2.784zM16 13.75a3.25 3.25 0 110 6.5 3.25 3.25 0 010-6.5zm9-10.5H7A1.75 1.75 0 005.25 5v22A1.75 1.75 0 007 28.75h18A1.75 1.75 0 0026.75 27V5A1.75 1.75 0 0025 3.25zM25.25 27a.25.25 0 01-.25.25H7a.25.25 0 01-.25-.25V5A.25.25 0 017 4.75h18a.25.25 0 01.25.25v22zm-14-19a.75.75 0 01.75-.75h8a.75.75 0 110 1.5h-8a.75.75 0 01-.75-.75z" fill="#222"/></svg>