<svg width="32" height="32" fill="none" xmlns="http://www.w3.org/2000/svg"><path d="M30.75 16a6.75 6.75 0 10-11.5 4.79V28a.75.75 0 001.085.671L24 26.84l3.665 1.832A.75.75 0 0028.75 28v-7.21a6.728 6.728 0 002-4.79zm-12 0a5.25 5.25 0 1110.499 0 5.25 5.25 0 01-10.499 0zm8.5 10.786l-2.915-1.457a.749.749 0 00-.67 0l-2.915 1.457v-4.875a6.733 6.733 0 006.5 0v4.875zM16.75 24a.75.75 0 01-.75.75H5A1.75 1.75 0 013.25 23V7A1.75 1.75 0 015 5.25h22A1.75 1.75 0 0128.75 7a.75.75 0 11-1.5 0 .25.25 0 00-.25-.25H5a.25.25 0 00-.25.25v16a.25.25 0 00.25.25h11a.75.75 0 01.75.75zm-2-7a.75.75 0 01-.75.75H9a.75.75 0 110-1.5h5a.75.75 0 01.75.75zm0-4a.75.75 0 01-.75.75H9a.75.75 0 110-1.5h5a.75.75 0 01.75.75z" fill="#222"/></svg>