<svg width="32" height="32" fill="none" xmlns="http://www.w3.org/2000/svg"><path d="M16 3.25A12.75 12.75 0 1028.75 16 12.765 12.765 0 0016 3.25zM27.25 16a11.193 11.193 0 01-.933 4.483l-5.836-3.59a1.745 1.745 0 00-.682-.25l-2.853-.383a1.757 1.757 0 00-1.814.99h-1.24a.25.25 0 01-.224-.141l-.475-.983a1.742 1.742 0 00-1.208-.949l-1.339-.287 1.154-2.015a.25.25 0 01.217-.125h2.09c.295 0 .586-.075.844-.219l1.532-.844a1.84 1.84 0 00.327-.234l3.364-3.042a1.742 1.742 0 00.354-2.151l-.403-.729A11.27 11.27 0 0127.25 16zM18.075 4.942l1.144 2.05a.25.25 0 01-.052.307l-3.363 3.041a.229.229 0 01-.046.034l-1.532.845a.25.25 0 01-.125.031h-2.084a1.75 1.75 0 00-1.517.875l-1.352 2.364a.253.253 0 01-.024-.044l-1.436-3.834a.25.25 0 010-.185l1.397-3.293a11.238 11.238 0 018.99-2.19zM4.75 16a11.19 11.19 0 011.423-5.471c0 .208.037.414.11.608l1.437 3.834a1.743 1.743 0 001.27 1.098l2.68.575a.25.25 0 01.172.136l.476.982a1.758 1.758 0 001.575.988h.57L13.4 21.125a1.75 1.75 0 00.314 1.9l.012.014 2.46 2.532a.25.25 0 01.058.213l-.283 1.466A11.262 11.262 0 014.75 16zm12.76 11.149l.209-1.075a1.759 1.759 0 00-.434-1.52l-.012-.014-2.46-2.532a.251.251 0 01-.042-.268l1.713-3.841a.25.25 0 01.266-.149l2.852.385a.248.248 0 01.098.034l5.925 3.65a11.272 11.272 0 01-8.115 5.33z" fill="#222"/></svg>