<svg width="32" height="32" fill="none" xmlns="http://www.w3.org/2000/svg"><path d="M14.728 27.181a.75.75 0 01-.91.546l-4-1a.766.766 0 01-.234-.103l-3-2a.752.752 0 01.832-1.25l2.892 1.927 3.875.969a.75.75 0 01.545.911zm16.59-12.075a1.734 1.734 0 01-.874 1.011l-3 1.5-6.914 6.914a.75.75 0 01-.712.197l-8-2a.747.747 0 01-.25-.118l-6.955-4.965-3.054-1.527a1.75 1.75 0 01-.783-2.348l3.107-6.211a1.75 1.75 0 012.347-.783L9.075 8.2l6.719-1.92a.75.75 0 01.412 0l6.72 1.92 2.844-1.423a1.75 1.75 0 012.348.783l3.106 6.211a1.741 1.741 0 01.095 1.336zm-29.088-.33L4.665 16 8 9.335 5.56 8.118a.25.25 0 00-.335.112l-3.106 6.211a.25.25 0 00-.013.19.24.24 0 00.125.145zm21.645 4.285l-3.841-3.076c-2.375 2.047-5.448 2.35-7.975.735a1.751 1.751 0 01-.299-2.714l5.715-5.545a.75.75 0 01.294-.175L16 7.78 9.524 9.625l-3.566 7.137 6.362 4.544 7.45 1.863 4.105-4.108zm2.21-2.21L22.536 9.75h-4.232l-5.489 5.325a.239.239 0 00-.064.194.25.25 0 00.118.187c1.661 1.061 4.267 1.359 6.599-.99a.75.75 0 011-.056L24.945 18l1.14-1.149zm3.795-2.41L26.776 8.23a.25.25 0 00-.335-.112l-2.435 1.217L27.336 16l2.434-1.217a.24.24 0 00.125-.146.249.249 0 00-.012-.196h-.003z" fill="#222"/></svg>