<svg width="120" height="205" fill="none" xmlns="http://www.w3.org/2000/svg"><path d="M30.277 109.333c-1.517-18.02-3.378-36.145 6.736-49.826 5.362-7.257 16.431-10.027 24.495-10.242 9.042-.242 22.458 3.677 28.189 11.929 6.656 9.59 5.006 21.518 5.006 34.7.47 4.365.57 8.789.847 13.439H30.277z" fill="#FFDC00"/><path d="M69.166 168.937c-.377-1.868-.708-3.562-1.062-5.251a434.054 434.054 0 00-1.68-7.912c-.225-.994.07-1.605.983-2.067 5.654-2.847 11.288-5.737 16.936-8.59 1.336-.677 2.264-.079 2.23 1.424-.208 9.3-.425 18.609-.651 27.925-.034 1.424-.72 1.913-2.09 1.503-3.338-.995-6.622-2.197-9.994-3.001-12.279-2.912-24.372-2.175-36.265 2.013-.67.237-1.336.484-1.999.721-2.301.82-2.804.476-2.855-1.936l-.188-10.125-.786-40.296c-.048-2.615-.905-5.012-1.827-7.404-.52-1.352-1.048-2.702-1.61-4.153h7.044c-.037.376-.049.748-.115 1.11-.465 2.585-.89 5.182-1.442 7.751-.18.831.066 1.283.631 1.813 5.888 5.526 11.74 11.09 17.636 16.605a2.794 2.794 0 011 2.514c-.718 8.285-1.389 16.57-2.06 24.859-.057.701 0 1.423 0 2.26a68.193 68.193 0 0118.164.237z" fill="#222"/><path d="M87.518 111.688h9.423c-.1.399-.143.667-.234.914-1.005 2.773-2.062 5.526-3.01 8.319-.328.957-.79 1.359-1.933 1-.337-1.774-.7-3.641-1.042-5.512-.386-2.102-.38-2.104-2.524-2.104H42.502c.44 1.306.81 2.477 1.242 3.624a.944.944 0 00.65.393c.426.042.854.051 1.28.026 12.216 0 24.432-.007 36.647-.02.908 0 1.362.256 1.76 1.093 1.698 3.594 3.506 7.138 5.23 10.723.166.338.206.953 0 1.219-3.426 4.538-7.458 8.331-12.96 10.207-6.128 2.093-11.976 1.09-17.484-1.994-7.825-4.396-13.267-10.995-16.868-19.095-4.551-10.251-4.046-20.435 1.177-30.29 3.058-5.774 7.584-10.139 14.014-12.083 7.088-2.141 13.395-.387 18.86 4.387 6.023 5.26 9.138 12.155 10.48 19.88.534 3.018.663 6.113.988 9.313zm-45.593-.046h42.898c-.183-2.448-.249-4.792-.557-7.118-.88-6.548-3.11-12.593-7.484-17.678-3.758-4.37-8.39-7.16-14.332-7.033-5.3.114-9.66 2.475-13.184 6.318-6.647 7.255-8.338 15.962-7.341 25.511z" fill="#222"/><path d="M74.134 49.761c.632-.812 1.394-1.837 2.216-2.807a.882.882 0 01.806-.14c4.263 1.876 8.58 3.664 12.432 6.332a28.97 28.97 0 013.187 2.663c1.73 1.602 2.013 3.869 2.55 5.979 2.598 10.25 3.064 20.71 2.707 31.222-.177 5.29-.517 10.578-.785 15.865-.015.285-.055.569-.089.905h-7.447c-.24-1.822-.44-3.681-.737-5.526-1.036-6.472-2.784-12.713-6.473-18.236-4.075-6.096-9.689-9.946-17.019-11.022-5.28-.775-10.136.57-14.734 3.192-5.965 3.41-9.451 8.786-11.736 14.948a57.78 57.78 0 00-3.295 15.249c-.04.459-.117.914-.183 1.424h-7.487c-.12-1.894-.285-3.761-.342-5.629-.177-7.85-.523-15.705-.411-23.55a80.014 80.014 0 013.517-22.148c.697-2.278 2.49-3.676 4.32-4.986 3.462-2.48 7.32-4.233 11.206-5.922 2.235-.97 2.241-.962 3.766.883.383.464.745.945 1.17 1.486-.285.208-.53.399-.79.57-4.12 2.502-7.821 5.549-11.445 8.712-4.1 3.582-5.96 8.214-6.981 13.413-1.523 7.76-1.751 15.589-1.817 23.444-.028 3.305-.052 6.611-.071 9.917v1.227h2.953c.39-2.252.696-4.504 1.179-6.716 1.576-7.226 4.032-14.08 9.183-19.62 5.468-5.88 12.25-9.129 20.316-8.644 9.078.54 16.088 5.042 21.025 12.627 3.712 5.694 5.557 12.072 6.668 18.701.166.979.323 1.961.422 2.949.06.584.306.809.883.786.702-.026 1.405 0 2.17 0 .02-.359.051-.632.048-.905-.082-6.754-.065-13.51-.285-20.255-.18-5.322-.643-10.624-1.882-15.843-1.142-4.82-3.538-8.826-7.384-11.904-3.666-2.947-7.459-5.697-11.33-8.641zM33.567 194.386c0-4.628 0-9.171.029-13.718a1.133 1.133 0 01.62-.803 64.515 64.515 0 0116.258-4.681 60.623 60.623 0 0126.208 1.921c2.255.664 4.471 1.439 6.385 2.874a8.456 8.456 0 012.258 10.985c-1.005 1.751-2.596 2.681-4.503 3.131-2.967.714-5.868.156-8.766-.484a79.865 79.865 0 00-37.447.612c-.24.063-.482.12-.728.171-.105.004-.21.002-.314-.008zm20.294-5.829l15.35 1.251c-1.664-4.442-.659-8.113 3.941-10.712-6.784-1.586-13.33-2.067-20.06-1.339 2.768 3.585 2.64 7.19.769 10.8zm.029-174.045c.856-.749 1.521-1.38 2.238-1.936 4.78-3.701 11.599-3.132 15.345 1.224 1.388 1.62 2.248 3.508 2.27 5.627.075 7.46.058 14.92.078 22.382 0 .646-.197 1.167-.943 1.139-.745-.029-.87-.613-.87-1.222v-9.382c0-3.838-.084-7.687 0-11.51.17-7.435-7.508-10.883-13.316-7.671-1.19.66-2.241 1.617-3.24 2.562-1.117 1.054-1.628 2.338-1.6 3.986.103 5.575.04 11.156.038 16.733 0 .285.096.627-.03.84-.208.348-.624.897-.833.855-.374-.086-.702-.524-.957-.88-.12-.165-.028-.484-.028-.732v-24.41c0-.213-.077-.486.028-.626.285-.349.593-.678.923-.985.3.336.814.644.856 1.014.123.91.04 1.865.04 2.992z" fill="#222"/><path d="M46.722 27.624v-7.57c0-.214-.077-.48.02-.633.254-.399.543-1.002.9-1.065.7-.122.913.464.913 1.122 0 4.089-.037 8.177.029 12.263.031 2.019.04 4.074.434 6.036a9.332 9.332 0 002.8 5.112 9.378 9.378 0 005.295 2.462c3.324.424 6.088-.886 8.32-3.252 1.037-1.099 1.828-2.431 2.722-3.664.206-.285.3-.71.571-.883.272-.173.857-.356 1.094-.21.237.145.53.788.417 1.041-2.827 6.264-9.243 10.82-16.082 8.087-4.412-1.766-6.748-5.305-7.222-9.9-.302-2.953-.057-5.962-.057-8.946h-.154zm16.014-10.116c1.21 0 2.418-.02 3.626 0 1.73.037 2.724.99 2.784 2.69.04 1.1.037 2.204 0 3.3-.063 1.643-1.065 2.663-2.695 2.685a268.11 268.11 0 01-7.573 0c-1.645-.028-2.627-1.047-2.676-2.69a52.51 52.51 0 010-3.195c.055-1.782 1.028-2.747 2.804-2.784 1.242-.026 2.487-.006 3.73-.006zm-.063 6.833h3.623c.66 0 1.014-.285 1.022-.942a105.89 105.89 0 000-3.087c-.014-.663-.33-1.047-1.056-1.045a724.3 724.3 0 01-7.039 0c-.802 0-1.188.36-1.19 1.14v2.767c-.015.854.388 1.204 1.247 1.173 1.114-.034 2.253-.003 3.393-.006zm-.163 27.686a3.045 3.045 0 011.855.553c.54.38.943.928 1.143 1.557.694 1.95.374 3.804-.734 5.484-1.282 1.944-3.426 1.939-4.685-.02-1.008-1.58-1.374-3.343-.803-5.188.463-1.603 1.565-2.397 3.224-2.386zm10.105 9.257l-6.75-1.709c.203-1.887.389-3.653.594-5.589l6.156-1.566v8.864zM59 59.598l-6.644 1.709V52.42l6.073 1.544.572 5.634zm-10.445-48.83c0 .39.115.829-.028 1.159-.143.33-.508.792-.857.854-.242.051-.828-.41-.856-.692a11.35 11.35 0 010-2.75c.037-.285.614-.758.856-.706a1.5 1.5 0 01.857.854c.145.367.031.837.031 1.264l-.003.017z" fill="#222"/><path d="M41.925 111.642c-.997-9.544.694-18.25 7.341-25.496 3.524-3.844 7.884-6.205 13.184-6.319 5.942-.128 10.565 2.663 14.332 7.033 4.374 5.08 6.604 11.116 7.484 17.664.308 2.312.374 4.656.557 7.118H41.925z" fill="#FFDC00"/><path d="M62.713 84.278l1.878 8.29 7.208-4.537-4.552 7.187 8.315 1.872-8.315 1.873 4.552 7.187-7.208-4.538-1.878 8.291-1.879-8.291-7.207 4.538 4.551-7.187-8.315-1.873 8.315-1.872-4.551-7.187 7.207 4.538 1.879-8.291z" fill="#fff"/></svg>