<svg width="48" height="48" fill="none" xmlns="http://www.w3.org/2000/svg"><rect width="48" height="48" rx="24" fill="#fff"/><path d="M40.96 24.422c0-1.255-.112-2.463-.321-3.622H24v6.85h9.508c-.41 2.215-1.654 4.09-3.525 5.346v4.444h5.71c3.34-3.084 5.267-7.624 5.267-13.018z" fill="#4285F4"/><path d="M23.947 41.6c4.722 0 8.68-1.592 11.573-4.307l-5.651-4.46c-1.566 1.066-3.569 1.697-5.922 1.697-4.554 0-8.41-3.128-9.784-7.33H8.32v4.606c2.878 5.81 8.791 9.794 15.627 9.794z" fill="#34A853"/><path d="M14.078 27.385A10.92 10.92 0 0113.532 24c0-1.174.198-2.316.546-3.385V16H8.253a18.122 18.122 0 00-1.855 8c0 2.875.674 5.595 1.855 8l5.825-4.615z" fill="#FBBC05"/><path d="M24.058 13.47c2.585 0 4.906.898 6.731 2.66l5.051-5.1C32.79 8.162 28.804 6.4 24.057 6.4c-6.883 0-12.839 3.984-15.737 9.794l5.884 4.606c1.384-4.202 5.267-7.33 9.854-7.33z" fill="#EA4335"/></svg>