<svg width="24" height="24" fill="none" xmlns="http://www.w3.org/2000/svg"><path fill-rule="evenodd" clip-rule="evenodd" d="M11.735 1.576a.5.5 0 01.53 0l2.13 1.33a9.5 9.5 0 003.856 1.371l1.811.227A.5.5 0 0120.5 5v6.457a10.5 10.5 0 01-4.935 8.904l-3.3 2.063a.5.5 0 01-.53 0l-3.3-2.063A10.5 10.5 0 013.5 11.457V5a.5.5 0 01.438-.496l1.811-.227a9.5 9.5 0 003.857-1.37l2.129-1.331zM12 2.59l-1.864 1.165A10.5 10.5 0 015.873 5.27L4.5 5.44v6.017a9.5 9.5 0 004.465 8.055L12 21.41l3.035-1.897a9.5 9.5 0 004.465-8.056V5.442l-1.373-.171a10.5 10.5 0 01-4.263-1.515L12 2.59z" fill="#222"/><path fill-rule="evenodd" clip-rule="evenodd" d="M15.854 9.354l-4 4a.5.5 0 01-.707 0l-2-2 .707-.706 1.646 1.646 3.647-3.648.707.708z" fill="#222"/></svg>