<svg width="20" height="20" fill="none" xmlns="http://www.w3.org/2000/svg"><g clip-path="url(#clip0_2200_10739)" fill="#707070"><path d="M19.373 9.375h-7.916a.625.625 0 010-1.25h7.916a.625.625 0 010 1.25z"/><path d="M16.25 12.5a.621.621 0 01-.442-.183.625.625 0 010-.884L18.49 8.75l-2.683-2.684a.625.625 0 11.884-.884l3.125 3.125a.625.625 0 010 .884l-3.125 3.125a.62.62 0 01-.442.184zM6.667 20c-.179 0-.348-.025-.517-.077l-5.015-1.671A1.682 1.682 0 010 16.667v-15C0 .748.748.001 1.667.001c.178 0 .347.025.516.077L7.198 1.75a1.682 1.682 0 011.135 1.585v15c0 .919-.747 1.666-1.666 1.666zm-5-18.75a.418.418 0 00-.417.417v15c0 .177.12.342.29.401l4.99 1.664a.453.453 0 00.137.018.417.417 0 00.416-.417v-15a.433.433 0 00-.29-.4l-4.99-1.664a.452.452 0 00-.136-.018z"/><path d="M12.71 6.667a.625.625 0 01-.626-.625v-3.75c0-.574-.467-1.042-1.041-1.042H1.668a.625.625 0 010-1.25h9.375a2.293 2.293 0 012.291 2.292v3.75c0 .345-.28.625-.625.625zM11.042 17.5H7.709a.625.625 0 010-1.25h3.334c.574 0 1.041-.467 1.041-1.042v-3.75a.625.625 0 011.25 0v3.75a2.293 2.293 0 01-2.291 2.292z"/></g><defs><clipPath id="clip0_2200_10739"><path fill="#fff" d="M0 0h20v20H0z"/></clipPath></defs></svg>