<svg width="24" height="24" fill="none" xmlns="http://www.w3.org/2000/svg"><g clip-path="url(#clip0_2012_3992)" fill="#222"><path d="M19.026 3.144h-2.171v-.97c0-.315-.343-.458-.657-.458h-1.686c-.4-1.143-1.4-1.714-2.542-1.714a2.6 2.6 0 00-2.543 1.714H7.77c-.314 0-.629.143-.629.457v.971h-2.17a2.428 2.428 0 00-2.4 2.315v16.37c0 1.257 1.142 2.17 2.4 2.17h14.055c1.257 0 2.4-.913 2.4-2.17V5.459a2.428 2.428 0 00-2.4-2.315zM8.284 2.86h1.571a.629.629 0 00.543-.514A1.657 1.657 0 0111.97 1.06a1.628 1.628 0 011.542 1.286.628.628 0 00.572.514h1.628v2.285H8.284V2.86zm12 18.97c0 .628-.63 1.028-1.258 1.028H4.97c-.628 0-1.257-.4-1.257-1.028V5.459c.058-.655.6-1.16 1.257-1.172h2.171v1.457a.6.6 0 00.629.543h8.428a.628.628 0 00.657-.543V4.287h2.171a1.286 1.286 0 011.257 1.172v16.37z"/><path d="M9.8 12.772a.571.571 0 00-.8-.028l-1.83 1.742-.77-.8a.571.571 0 00-.8-.028.6.6 0 000 .828l1.17 1.2a.515.515 0 00.4.172.571.571 0 00.4-.172l2.23-2.114a.543.543 0 000-.8zm8.199 1.229h-6.571a.571.571 0 100 1.143h6.57a.571.571 0 100-1.143zm-8.2-5.8a.571.571 0 00-.8-.028L7.171 9.915l-.771-.8a.571.571 0 00-.8-.028.6.6 0 000 .828l1.17 1.2a.514.514 0 00.4.172.57.57 0 00.4-.172L9.8 9.001a.543.543 0 000-.8zM18 9.43h-6.571a.571.571 0 100 1.142h6.57a.571.571 0 100-1.142zm-8.2 7.913a.571.571 0 00-.8-.028l-1.828 1.742-.771-.8a.571.571 0 00-.8-.028.6.6 0 000 .829l1.17 1.2a.514.514 0 00.4.17.57.57 0 00.4-.17l2.23-2.115a.543.543 0 000-.8zm8.2 1.229h-6.571a.571.571 0 100 1.143h6.57a.571.571 0 100-1.143z"/></g><defs><clipPath id="clip0_2012_3992"><path fill="#fff" d="M0 0h24v24H0z"/></clipPath></defs></svg>