<svg width="24" height="24" fill="none" xmlns="http://www.w3.org/2000/svg"><path d="M8.308 11.077H5.077c-.385 0-.712-.135-.981-.404a1.336 1.336 0 01-.404-.98V9.23c0-1.02.36-1.89 1.082-2.61a3.558 3.558 0 012.61-1.082h.924a.89.89 0 00.649-.274.887.887 0 00.274-.65V2.77a.888.888 0 00-.274-.649.888.888 0 00-.65-.274h-.922c-1 0-1.955.195-2.863.584a7.442 7.442 0 00-2.359 1.58A7.436 7.436 0 00.584 6.368 7.193 7.193 0 000 9.23v10.153c0 .77.27 1.424.808 1.962a2.671 2.671 0 001.961.808h5.539c.77 0 1.423-.27 1.962-.808a2.671 2.671 0 00.807-1.962v-5.538c0-.77-.27-1.423-.808-1.961a2.67 2.67 0 00-1.961-.808zm14.885.808a2.67 2.67 0 00-1.962-.808h-3.23c-.385 0-.712-.135-.981-.404a1.335 1.335 0 01-.404-.98V9.23c0-1.02.36-1.89 1.082-2.61a3.557 3.557 0 012.61-1.082h.923c.25 0 .467-.092.65-.274a.888.888 0 00.274-.65V2.77a.888.888 0 00-.275-.649.888.888 0 00-.649-.274h-.923c-1 0-1.954.195-2.863.584a7.441 7.441 0 00-2.358 1.58 7.433 7.433 0 00-1.58 2.358 7.196 7.196 0 00-.584 2.863v10.153c0 .77.27 1.424.808 1.962a2.67 2.67 0 001.962.808h5.538c.77 0 1.423-.27 1.961-.808A2.67 2.67 0 0024 19.384v-5.538c0-.77-.269-1.423-.807-1.961z" fill="#FFDC00"/></svg>