<svg width="32" height="32" fill="none" xmlns="http://www.w3.org/2000/svg"><path d="M29.66 12.237a1.722 1.722 0 00-1.51-1.2l-7.432-.642a.25.25 0 01-.206-.153l-2.904-6.92a1.75 1.75 0 00-3.22 0l-2.903 6.92a.25.25 0 01-.207.153l-7.432.642a1.723 1.723 0 00-1.51 1.2 1.75 1.75 0 00.514 1.875l5.638 4.92a.257.257 0 01.08.25l-1.695 7.313a1.75 1.75 0 00.681 1.82 1.717 1.717 0 001.925.077l6.39-3.875a.238.238 0 01.25 0l6.388 3.875a1.75 1.75 0 002.616-1.897l-1.69-7.316a.258.258 0 01.08-.25l5.639-4.92a1.75 1.75 0 00.509-1.872zm-1.5.74l-5.638 4.92a1.75 1.75 0 00-.555 1.72l1.69 7.315a.25.25 0 01-.099.267.226.226 0 01-.267.01l-6.389-3.874a1.74 1.74 0 00-1.808 0L8.707 27.21a.225.225 0 01-.268-.011.25.25 0 01-.099-.267l1.69-7.316a1.75 1.75 0 00-.554-1.72l-5.64-4.919a.25.25 0 01-.073-.273.232.232 0 01.212-.173l7.434-.642a1.75 1.75 0 001.465-1.067l2.904-6.92a.25.25 0 01.453 0l2.893 6.92a1.75 1.75 0 001.46 1.067l7.434.642a.233.233 0 01.213.173.25.25 0 01-.07.273z" fill="#222"/></svg>