<svg width="24" height="24" fill="none" xmlns="http://www.w3.org/2000/svg"><path fill-rule="evenodd" clip-rule="evenodd" d="M14.757 2.621a4.683 4.683 0 016.622 6.622l-9.486 9.486c-.542.542-.86.86-1.216 1.137a7.173 7.173 0 01-1.35.835c-.406.193-.834.336-1.56.578l-3.332 1.11-.802.268a1.81 1.81 0 01-2.29-2.29l1.378-4.133c.242-.727.385-1.155.578-1.562.23-.48.508-.93.835-1.35.276-.354.595-.673 1.137-1.215l9.486-9.486zM4.4 20.821l2.841-.948c.791-.264 1.127-.377 1.44-.526a5.906 5.906 0 001.073-.663c.273-.214.525-.463 1.115-1.053l7.57-7.57a7.36 7.36 0 01-2.757-1.744A7.36 7.36 0 0113.94 5.56l-7.57 7.57c-.59.589-.84.84-1.053 1.114-.26.333-.48.691-.663 1.073-.149.313-.262.649-.526 1.44L3.18 19.6l1.22 1.221zM15.155 4.343c.035.175.092.413.19.69a5.861 5.861 0 001.4 2.222 5.861 5.861 0 002.22 1.4c.278.097.516.154.691.189l.662-.662a3.182 3.182 0 00-4.5-4.5l-.663.661z" fill="#222"/></svg>