<svg width="20" height="20" fill="none" xmlns="http://www.w3.org/2000/svg"><g clip-path="url(#clip0_2200_10732)" fill="#707070"><path d="M10.933 20H9.067a1.249 1.249 0 01-1.239-1.1l-.199-1.563a7.881 7.881 0 01-1.145-.474l-1.245.967a1.243 1.243 0 01-1.654-.105l-1.313-1.313a1.24 1.24 0 01-.101-1.649l.967-1.245a7.693 7.693 0 01-.474-1.146l-1.567-.199A1.25 1.25 0 010 10.933V9.067c0-.631.472-1.164 1.1-1.239l1.563-.199a7.94 7.94 0 01.475-1.145L2.17 5.24a1.242 1.242 0 01.106-1.655l1.312-1.312a1.24 1.24 0 011.65-.102l1.244.968a7.847 7.847 0 011.146-.474l.2-1.567A1.248 1.248 0 019.066 0h1.866c.631 0 1.164.472 1.239 1.1l.199 1.563c.398.13.781.289 1.146.475l1.245-.968a1.241 1.241 0 011.654.106l1.312 1.312a1.24 1.24 0 01.102 1.65l-.967 1.245c.186.365.345.748.474 1.145l1.566.2A1.25 1.25 0 0120 9.066v1.866c0 .631-.473 1.164-1.1 1.239l-1.563.199a7.877 7.877 0 01-.474 1.145l.967 1.245a1.242 1.242 0 01-.106 1.654l-1.312 1.313a1.24 1.24 0 01-1.65.101l-1.245-.967a7.691 7.691 0 01-1.145.474l-.2 1.567A1.25 1.25 0 0110.933 20zm-4.491-4.05c.069 0 .14.018.203.053.468.26.964.466 1.478.613a.417.417 0 01.299.347l.233 1.834c.025.209.206.37.412.37h1.866a.42.42 0 00.411-.366l.234-1.837a.417.417 0 01.299-.347 6.992 6.992 0 001.478-.614.417.417 0 01.458.035l1.459 1.134a.41.41 0 00.546-.029l1.32-1.32a.413.413 0 00.033-.55l-1.133-1.459a.417.417 0 01-.035-.458c.26-.468.466-.964.613-1.479a.418.418 0 01.347-.298l1.834-.233a.422.422 0 00.37-.413V9.067a.42.42 0 00-.366-.411l-1.837-.234a.416.416 0 01-.347-.299 6.991 6.991 0 00-.614-1.478.415.415 0 01.035-.458l1.134-1.459a.408.408 0 00-.028-.545l-1.32-1.32a.41.41 0 00-.55-.033l-1.459 1.133a.416.416 0 01-.46.035 6.965 6.965 0 00-1.478-.613.417.417 0 01-.298-.347l-.233-1.834a.422.422 0 00-.413-.37H9.067a.42.42 0 00-.411.365l-.234 1.837a.418.418 0 01-.299.348 6.963 6.963 0 00-1.478.613.417.417 0 01-.46-.034L4.729 2.829a.408.408 0 00-.545.028L2.862 4.178a.412.412 0 00-.033.55l1.133 1.459a.417.417 0 01.035.458 6.95 6.95 0 00-.613 1.478.417.417 0 01-.347.299l-1.834.233a.42.42 0 00-.37.412v1.866a.42.42 0 00.366.411l1.837.234a.417.417 0 01.347.299c.15.521.357 1.019.614 1.478a.414.414 0 01-.035.458l-1.134 1.459a.408.408 0 00.028.545l1.32 1.32a.412.412 0 00.55.033l1.459-1.133a.429.429 0 01.257-.087z"/><path d="M9.999 14.167A4.171 4.171 0 015.832 10a4.171 4.171 0 014.167-4.167A4.171 4.171 0 0114.165 10 4.171 4.171 0 0110 14.167zm0-7.5A3.337 3.337 0 006.665 10 3.337 3.337 0 0010 13.333 3.337 3.337 0 0013.332 10a3.337 3.337 0 00-3.333-3.333z"/></g><defs><clipPath id="clip0_2200_10732"><path fill="#fff" d="M0 0h20v20H0z"/></clipPath></defs></svg>