<svg width="32" height="32" fill="none" xmlns="http://www.w3.org/2000/svg"><path d="M27 6.25H5A1.75 1.75 0 003.25 8v20a1.735 1.735 0 001.011 1.586 1.734 1.734 0 001.864-.25l.011-.01 4.018-3.521a.25.25 0 01.159-.055H27A1.75 1.75 0 0028.75 24V8A1.75 1.75 0 0027 6.25zM27.25 24a.25.25 0 01-.25.25H10.312c-.411 0-.81.146-1.124.411l-.012.01-4.02 3.521A.25.25 0 014.75 28V8A.25.25 0 015 7.75h22a.25.25 0 01.25.25v16zm-6.5-10a.75.75 0 01-.75.75h-8a.75.75 0 110-1.5h8a.75.75 0 01.75.75zm0 4a.75.75 0 01-.75.75h-8a.75.75 0 110-1.5h8a.75.75 0 01.75.75z" fill="#222"/></svg>