<svg width="24" height="24" fill="none" xmlns="http://www.w3.org/2000/svg"><path fill-rule="evenodd" clip-rule="evenodd" d="M4.665 22.5a3.174 3.174 0 01-2.235-.925 3.13 3.13 0 01-.925-2.235V4.655c0-.839.333-1.635.925-2.235a3.13 3.13 0 012.235-.926H19.35c.838 0 1.635.333 2.235.926.6.592.925 1.396.925 2.235V19.34c0 .838-.333 1.635-.925 2.235a3.13 3.13 0 01-2.235.925H4.665zm12.825-8.865h-2.22v7.335h4.08a1.625 1.625 0 001.63-1.63V4.655a1.628 1.628 0 00-1.63-1.63H4.665a1.635 1.635 0 00-1.63 1.63V19.34a1.635 1.635 0 001.63 1.63h8.16v-7.335H10.38V11.19h2.445V9.876c0-2.49 1.212-3.585 3.285-3.585.97 0 1.492.07 1.74.105l.015.002v2.34h-1.41c-.711 0-1.047.304-1.149.918-.024.16-.036.321-.034.483v1.045h2.565l-.35 2.445.003.006z" fill="#222"/></svg>