<svg width="15" height="15" fill="none" xmlns="http://www.w3.org/2000/svg"><path d="M13.325 15h-3.4C9 15 8.25 14.25 8.25 13.325V8.75c0-.275.225-.5.5-.5h4.575C14.25 8.25 15 9 15 9.925v3.4C15 14.25 14.25 15 13.325 15zM9.25 9.25v4.075c0 .375.3.675.675.675h3.4c.375 0 .675-.3.675-.675v-3.4c0-.375-.3-.675-.675-.675H9.25zM5.075 15h-3.4C.75 15 0 14.25 0 13.325v-3.4C0 9 .75 8.25 1.675 8.25H6.25c.275 0 .5.225.5.5v4.575C6.75 14.25 6 15 5.075 15zm-3.4-5.75c-.375 0-.675.3-.675.675v3.4c0 .375.3.675.675.675h3.4c.375 0 .675-.3.675-.675V9.25H1.675zm11.65-2.5H8.75a.501.501 0 01-.5-.5V1.675C8.25.75 9 0 9.925 0h3.4C14.25 0 15 .75 15 1.675v3.4C15 6 14.25 6.75 13.325 6.75zm-4.075-1h4.075c.375 0 .675-.3.675-.675v-3.4C14 1.3 13.7 1 13.325 1h-3.4c-.375 0-.675.3-.675.675V5.75zm-3 1H1.675C.75 6.75 0 6 0 5.075v-3.4C0 .75.75 0 1.675 0h3.4C6 0 6.75.75 6.75 1.675V6.25c0 .275-.225.5-.5.5zM1.675 1C1.3 1 1 1.3 1 1.675v3.4c0 .375.3.675.675.675H5.75V1.675C5.75 1.3 5.45 1 5.075 1h-3.4z" fill="#171E2F"/></svg>