<svg width="206" height="80" fill="none" xmlns="http://www.w3.org/2000/svg"><path d="M196.99 65.256H.136V80H196.99V65.256z" fill="#F2F2F2"/><path d="M109.758 68.942h.819l3.003 7.782h-.819l-.819-2.321h-3.55l-.955 2.457h-.819l3.14-7.918zm-1.093 4.778h3.14l-1.501-3.959-1.639 3.96zm5.734-4.778h.819l4.505 6.553v-6.553h.683v7.782h-.82l-4.505-6.553v6.552h-.682v-7.781zm10.512 0h5.87v1.502h-4.096v1.638h3.823v1.365h-3.823v1.911h4.232v1.502h-5.87l-.136-7.918zm8.054 5.188c0 1.092.819 1.501 1.775 1.501.546 0 1.501-.136 1.501-.955 0-.82-1.228-.956-2.321-1.229-1.228-.273-2.32-.82-2.32-2.184 0-1.639 1.501-2.321 2.867-2.321 1.638 0 3.139.683 3.139 2.457h-1.638c0-.955-.682-1.228-1.501-1.228-.547 0-1.229.273-1.229.819 0 .546.409.682 2.321 1.228.546.137 2.32.546 2.32 2.321 0 1.502-1.092 2.457-3.276 2.457-1.775 0-3.413-.819-3.276-2.73l1.638-.136zm7.781-5.188h1.775l2.867 7.782h-1.775l-.546-1.775H140.2l-.546 1.775h-1.775l2.867-7.782zm-.136 4.778h2.047l-.955-2.867-1.092 2.867zm5.597-4.778h3.686c1.501 0 2.457.546 2.457 1.911 0 .82-.41 1.365-1.092 1.638.955.273 1.501.956 1.501 2.048 0 1.638-1.365 2.321-2.73 2.321h-3.822v-7.918zm1.638 3.14h1.775c.546 0 1.092-.273 1.092-.956 0-.682-.546-.955-1.229-.955h-1.638v1.91zm0 3.413h1.775c.682 0 1.228-.273 1.228-1.092 0-.82-.546-1.093-1.228-1.093h-1.912l.137 2.185zm11.194-6.553h3.276c1.366 0 2.458.41 2.458 1.911 0 .82-.546 1.638-1.365 1.775.955.136 1.638.819 1.638 1.911 0 .683-.273 2.184-2.867 2.184h-3.276l.136-7.781zm.819 3.413h2.594c1.229 0 1.775-.546 1.775-1.365 0-.956-.546-1.502-1.775-1.502h-2.594v2.867zm0 3.822h2.594c1.092 0 2.048-.41 2.048-1.638 0-.956-.819-1.502-2.048-1.502h-2.594v3.14zm5.87-7.235h3.55c1.228 0 2.32.683 2.32 2.048 0 .955-.546 1.774-1.501 2.047.955.137 1.365.82 1.365 1.775 0 .546 0 1.638.409 2.048h-.819c-.136-.273-.136-.82-.273-1.229 0-1.092-.136-2.32-1.501-2.32h-2.731v3.412h-.682l-.137-7.781zm.819 3.686h2.731c.955 0 1.638-.546 1.638-1.502 0-.955-.546-1.502-1.638-1.502h-2.731v3.004zm9.01-3.686h.819l3.004 7.782h-.819l-.956-2.458h-3.549l-.956 2.457h-.819l3.276-7.781zm-1.228 4.778h3.14l-1.502-3.959-1.638 3.96zm5.87-4.778h.819l4.505 6.553v-6.553h.682v7.782h-.819l-4.505-6.553v6.552h-.682v-7.781zm6.962 0h2.73c2.321 0 3.55 1.365 3.55 3.959 0 2.594-1.229 3.823-3.55 3.959h-2.73v-7.918zm.819 7.235h1.638c2.184 0 3.277-.955 3.277-3.276 0-2.32-.956-3.276-3.277-3.276h-1.638v6.552zm-32.081-5.87c0 .82-.682 1.502-1.501 1.502a1.515 1.515 0 01-1.502-1.502c0-.819.683-1.502 1.502-1.502.819.137 1.501.683 1.501 1.502zm-2.73 0c0 .683.546 1.229 1.229 1.229.682 0 1.228-.546 1.228-1.229s-.546-1.228-1.228-1.228c-.683 0-1.229.546-1.229 1.228zm.956.956h-.273v-1.775h.682c.41 0 .546.136.546.41 0 .273-.136.41-.409.546l.546.819h-.273l-.546-.82h-.41l.137.82zm.273-.956c.273 0 .546 0 .546-.273s-.137-.273-.41-.273h-.409v.546h.273zM.273 57.065L0 2.457h12.832l-1.638 38.225h.137L26.074 2.457h12.833l-23.48 54.608H.272zm30.852 0L42.73 2.457h12.832L43.958 57.065H31.125zM78.769 21.57l.682-3.55c1.092-4.641 0-7.099-2.457-7.099-3.959-.136-5.46 2.048-6.143 5.734l-5.87 27.03c-.683 3.004.136 4.915 3.55 4.915 4.368 0 5.733-4.505 6.415-7.918l1.092-4.914h12.833l-1.365 6.69c-2.048 9.419-8.737 15.972-21.843 15.972-11.74 0-15.016-6.28-12.695-17.338l4.777-22.39C60.203 6.827 66.892 1.366 78.632 1.366c10.921 0 16.518 4.642 14.061 15.836l-.955 4.642h-12.97v-.273zM97.471 2.457h33.173l-2.321 10.922h-10.375l-9.283 43.686H95.833l9.283-43.686H95.014L97.47 2.457zm62.387 37.133c-2.594 12.287-8.327 18.703-21.16 18.703-12.832 0-16.245-6.416-13.651-18.703l4.778-22.252c2.184-10.512 9.693-16.246 20.887-16.246s15.972 5.87 13.788 16.246l-4.642 22.252zm-8.327-21.297c.682-3.413 1.228-7.372-3.004-7.372-4.095 0-5.46 3.96-6.143 7.372l-4.778 22.39c-.682 3.14-1.092 7.781 3.004 7.781 4.095 0 5.46-4.642 6.143-7.782l4.778-22.389zm21.842 38.772h-12.832l11.603-54.608h18.703c10.512 0 14.88 4.232 12.559 15.017-1.228 5.87-3.549 9.966-9.419 12.424v.136c3.413.82 5.46 3.276 4.778 7.099-.546 4.369-2.457 13.788-2.457 17.201.136.683.409 1.366.819 1.912l-.137.682h-13.924c-.137-.955-.273-2.047 0-3.14.819-4.778 2.047-9.283 2.457-12.696.409-3.413-.273-5.597-3.14-5.734h-4.232l-4.778 21.707zm6.689-31.4h4.369c3.686 0 5.324-3.412 6.006-6.825 1.366-6.417-1.228-6.826-7.508-6.553l-2.867 13.379zm22.116 24.028c2.047 0 3.822 1.638 3.822 3.822s-1.775 3.823-3.822 3.823c-2.048 0-3.823-1.639-3.823-3.823.137-2.184 1.775-3.822 3.823-3.822zm0 6.962c1.774 0 3.139-1.365 3.139-3.276 0-1.775-1.365-3.14-3.139-3.14-1.775 0-3.14 1.365-3.14 3.14.136 1.91 1.365 3.276 3.14 3.276zm-1.366-5.46h1.775c1.092 0 1.502.409 1.502 1.228 0 .82-.546 1.092-1.229 1.229l1.229 1.91h-.683l-1.228-1.91h-.683v1.91h-.683v-4.368zm.683 2.047h.683c.546 0 1.228 0 1.228-.682 0-.547-.546-.683-.955-.683h-.956v1.365z" fill="#707070"/></svg>