<svg width="201" height="80" fill="none" xmlns="http://www.w3.org/2000/svg"><path d="M193.293 65.398H.177V80h193.116V65.398z" fill="#F2F2F2"/><path d="M107.277 69.027h.797l3.012 7.699h-.797l-.975-2.39h-3.543l-.886 2.39h-.797l3.189-7.7zm-1.152 4.69h3.012l-1.506-3.982-1.506 3.982zm5.67-4.69h.797l4.518 6.548v-6.548h.708v7.699h-.797l-4.518-6.549v6.549h-.708v-7.7zm10.364 0h5.758v1.415h-4.075v1.682h3.721v1.327h-3.721v1.859h4.164v1.416h-5.847v-7.7zm7.973 5.133c0 1.061.797 1.415 1.683 1.415.62 0 1.506-.177 1.506-.973 0-.797-1.152-.974-2.303-1.24-1.152-.265-2.304-.707-2.304-2.212 0-1.592 1.506-2.3 2.924-2.3 1.594 0 3.1.708 3.1 2.478h-1.683c-.089-.974-.709-1.151-1.506-1.151-.531 0-1.151.265-1.151.885s.354.708 2.303 1.15c.531.177 2.303.531 2.303 2.213 0 1.416-1.152 2.478-3.189 2.478-1.683 0-3.278-.885-3.278-2.744h1.595zm7.707-5.133h1.771l2.924 7.699h-1.772l-.62-1.682h-2.835l-.62 1.682h-1.683l2.835-7.7zm-.089 4.69h2.038l-.975-2.832-1.063 2.832zm5.404-4.69h3.632c1.506 0 2.48.442 2.48 1.947 0 .796-.354 1.239-1.063 1.592.975.266 1.418.974 1.418 1.947 0 1.593-1.329 2.213-2.747 2.213h-3.72v-7.7zm1.683 3.097h1.683c.62 0 1.063-.265 1.063-.885 0-.708-.531-.885-1.152-.885h-1.594v1.77zm0 3.274h1.86c.709 0 1.24-.177 1.24-.973 0-.797-.531-1.062-1.24-1.062h-1.86v2.035zm11.162-6.371h3.277c1.329 0 2.481.442 2.481 1.858 0 .796-.532 1.593-1.329 1.77.974.177 1.594.885 1.594 1.858 0 .708-.265 2.213-2.746 2.213h-3.277v-7.7zm.708 3.362h2.569c1.152 0 1.772-.619 1.772-1.327 0-.973-.62-1.416-1.772-1.416h-2.569v2.743zm0 3.717h2.569c1.063 0 2.038-.354 2.038-1.593 0-.973-.709-1.504-2.038-1.504h-2.569v3.097zm5.847-7.079h3.543c1.241 0 2.392.62 2.392 2.035 0 .974-.531 1.77-1.506 1.947.975.088 1.329.796 1.329 1.77 0 .53 0 1.593.354 1.947h-.797c-.177-.266-.177-.885-.177-1.24-.089-1.061-.177-2.3-1.506-2.212h-2.746v3.452h-.709v-7.7h-.177zm.709 3.628h2.746c.886 0 1.683-.531 1.683-1.505 0-.973-.532-1.504-1.683-1.504h-2.746v3.009zm8.947-3.628h.797l3.012 7.699h-.797l-.975-2.39h-3.543l-.886 2.39h-.797l3.189-7.7zm-1.152 4.69h3.012l-1.506-3.982-1.506 3.982zm5.67-4.69h.797l4.518 6.548v-6.548h.708v7.699h-.797l-4.518-6.549v6.549h-.708v-7.7zm6.998 0h2.657c2.304.088 3.544 1.327 3.544 3.893 0 2.567-1.24 3.806-3.544 3.894h-2.657v-7.787zm.709 7.08h1.594c2.215 0 3.189-.886 3.189-3.187 0-2.3-.974-3.274-3.189-3.185h-1.594v6.371zm-31.625-5.665c0 .797-.62 1.505-1.506 1.505-.798 0-1.506-.62-1.506-1.505 0-.796.62-1.504 1.506-1.504s1.506.62 1.506 1.504zm-2.747 0a1.21 1.21 0 001.241 1.24c.708 0 1.24-.532 1.24-1.24a1.21 1.21 0 00-1.24-1.238c-.709-.089-1.241.53-1.241 1.238zm.975.797h-.177v-1.681h.62c.354 0 .531.176.531.442 0 .265-.177.442-.443.442l.532.797h-.266l-.443-.797h-.354v.797zm.266-.885c.265 0 .531 0 .531-.266 0-.265-.177-.265-.443-.265h-.354v.62h.266v-.09zM2.303 3.451H35.08L32.777 14.16H22.589l-9.213 43.097H.71L9.922 14.16H0L2.303 3.451zM68.122 41.15h.089L80.258 3.451h11.96L71.753 57.257H57.58l4.164-37.877h-.177L49.342 57.257H35.346L37.737 3.45h12.225L45.71 41.24l.177-.177 13.11-37.61h12.226l-3.1 37.698zm15.325 16.107L94.875 3.45h28.967l-2.303 10.708h-16.3l-2.126 9.912h15.769l-2.304 10.796H100.81L98.33 46.46h17.185l-2.303 10.797H83.447zm62.985-35.045l.708-3.451c.975-4.602-.177-6.991-2.569-6.991-3.898-.089-5.315 2.124-6.112 5.575l-5.581 26.726c-.62 3.009.177 4.778 3.543 4.778 4.341 0 5.581-4.424 6.29-7.787l1.063-4.867h12.668l-1.418 6.637c-1.949 9.292-8.681 15.752-21.615 15.752-11.604 0-14.882-6.195-12.49-17.168l4.695-22.124c2.392-11.682 8.947-17.168 20.552-17.168 10.807 0 16.299 4.602 13.908 15.575l-.975 4.513h-12.667zm47.215 17.876c-2.568 12.124-8.149 18.407-20.906 18.407-12.756 0-15.856-6.283-13.287-18.407l4.695-21.858c2.126-10.354 9.478-16.106 20.551-16.106 11.074 0 15.769 5.752 13.642 16.106l-4.695 21.858zm-8.149-20.973c.708-3.274 1.24-7.257-2.924-7.257-3.986 0-5.403 3.983-6.023 7.257l-4.696 22.124c-.62 3.097-1.151 7.699 2.924 7.699s5.315-4.602 6.024-7.7l4.695-22.123zm8.858 31.505c2.038 0 3.721 1.592 3.721 3.716s-1.683 3.717-3.721 3.717c-2.037 0-3.72-1.593-3.72-3.717-.089-2.124 1.594-3.717 3.72-3.717zm0 6.902c1.683 0 3.101-1.416 3.101-3.186s-1.329-3.186-3.101-3.186-3.1 1.416-3.1 3.186c0 1.859 1.328 3.186 3.1 3.186zm-1.506-5.31h1.683c1.063 0 1.506.443 1.506 1.24 0 .796-.531 1.15-1.151 1.15l1.24 1.947h-.709l-1.151-1.859h-.709v1.859h-.709v-4.337zm.709 1.859h.709c.62 0 1.151 0 1.151-.708 0-.62-.531-.708-.974-.708h-.886v1.416z" fill="#707070"/></svg>