<svg width="219" height="80" fill="none" xmlns="http://www.w3.org/2000/svg"><path d="M210.169 65.268H0V80h210.169V65.268z" fill="#F2F2F2"/><path d="M123.461 68.928h.803l3.032 7.768h-.802l-.982-2.41h-3.568l-.981 2.41h-.803l3.301-7.767zm-1.16 4.733h3.033l-1.517-4.018-1.516 4.018zm5.798-4.733h.803l4.55 6.608v-6.608h.713v7.768h-.803l-4.549-6.607v6.607h-.714V68.93zm10.437 0h5.799v1.429h-4.104v1.697h3.747v1.339h-3.747v1.875h4.193v1.428h-5.888V68.93zm7.94 5.179c0 1.072.803 1.429 1.695 1.429.624 0 1.516-.179 1.516-.982 0-.804-1.159-.983-2.319-1.25-1.16-.268-2.319-.715-2.319-2.233 0-1.607 1.516-2.321 2.943-2.321 1.606 0 3.123.714 3.123 2.5h-1.695c-.09-.982-.714-1.16-1.517-1.16-.535 0-1.16.267-1.16.892s.357.714 2.32 1.16c.535.18 2.319.537 2.319 2.233 0 1.429-1.16 2.5-3.211 2.5-1.695 0-3.301-.893-3.301-2.768h1.606zm7.85-5.179h1.784l2.944 7.768h-1.784L156.645 75h-2.944l-.624 1.696h-1.695l2.944-7.767zm-.179 4.733h2.052l-.981-2.858-1.071 2.858zm5.531-4.733h3.658c1.516 0 2.497.447 2.497 1.965 0 .803-.356 1.25-1.07 1.607.981.268 1.427.982 1.427 1.964 0 1.607-1.338 2.232-2.765 2.232h-3.747V68.93zm1.695 3.126h1.695c.624 0 1.071-.268 1.071-.893 0-.715-.536-.893-1.16-.893h-1.606v1.785zm0 3.303h1.873c.714 0 1.249-.178 1.249-.982s-.535-1.072-1.249-1.072h-1.873v2.054zm11.151-6.429h3.3c1.339 0 2.498.447 2.498 1.876 0 .803-.535 1.607-1.338 1.785.981.179 1.606.893 1.606 1.875 0 .715-.268 2.232-2.766 2.232h-3.3V68.93zm.713 3.393h2.587c1.16 0 1.785-.625 1.785-1.339 0-.982-.625-1.428-1.785-1.428h-2.587v2.767zm0 3.75h2.587c1.071 0 2.052-.357 2.052-1.607 0-.982-.713-1.518-2.052-1.518h-2.587v3.125zm5.888-7.143h3.568c1.249 0 2.409.626 2.409 2.054 0 .982-.535 1.786-1.517 1.964.982.09 1.338.804 1.338 1.786 0 .536 0 1.607.357 1.964h-.803c-.178-.267-.178-.892-.178-1.25-.089-1.071-.178-2.321-1.517-2.232h-2.765v3.482h-.714V68.93h-.178zm.714 3.661h2.765c.892 0 1.695-.535 1.695-1.518 0-.982-.535-1.517-1.695-1.517h-2.765v3.035zm9.009-3.661h.803l3.033 7.768h-.803l-.981-2.41h-3.568l-.892 2.41h-.803l3.211-7.767zm-1.159 4.733h3.033l-1.517-4.018-1.516 4.018zm5.798-4.733h.803l4.55 6.608v-6.608h.713v7.768h-.803l-4.549-6.607v6.607h-.714V68.93zm6.958 0h2.676c2.32.09 3.569 1.34 3.569 3.929 0 2.59-1.249 3.84-3.569 3.929h-2.676v-7.858zm.803 7.143h1.606c2.23 0 3.211-.892 3.211-3.214 0-2.321-.981-3.303-3.211-3.214h-1.606v6.428zm-31.936-5.714c0 .804-.624 1.518-1.516 1.518a1.505 1.505 0 01-1.517-1.518c0-.803.625-1.518 1.517-1.518.892 0 1.516.625 1.516 1.518zm-2.676 0c0 .715.535 1.25 1.249 1.25a1.22 1.22 0 001.249-1.25 1.22 1.22 0 00-1.249-1.25c-.714-.09-1.249.536-1.249 1.25zm.892.804h-.178v-1.697h.624c.357 0 .536.179.536.447s-.179.446-.446.446l.535.804h-.268l-.446-.804h-.357v.804zm.268-.893c.268 0 .535 0 .535-.268s-.178-.268-.446-.268h-.357v.625h.268v-.09zM.535 57.053L23.907 2.769h15.344l.267 54.285H26.672l.357-10.624h-9.901L13.38 56.963H.535v.09zM29.527 12.59h-.178l-8.832 24.286h7.404l1.606-24.286zm24.978 44.463H41.748L53.256 2.769H71.81c10.437 0 14.719 4.196 12.4 15-1.16 5.714-3.39 9.91-9.278 12.321v.179c3.39.803 5.352 3.214 4.817 7.053-.535 4.375-2.498 13.661-2.498 17.143.179.715.357 1.34.803 1.875l-.178.715H64.05c-.179-.983-.179-2.054-.09-3.126.803-4.82 2.052-9.285 2.41-12.589.356-3.303-.18-5.535-3.123-5.714h-4.193l-4.55 21.428zm6.6-31.25h4.372c3.657 0 5.263-3.392 5.977-6.696 1.338-6.428-1.25-6.696-7.493-6.607l-2.855 13.303zm47.726-4.107l.714-3.482c.981-4.643-.179-7.053-2.587-7.053-3.925-.09-5.353 2.143-6.156 5.625L95.093 43.75c-.624 3.036.179 4.821 3.569 4.821 4.371 0 5.62-4.464 6.333-7.857l1.071-4.91h12.756l-1.427 6.696c-1.963 9.375-8.742 15.893-21.766 15.893-11.686 0-14.987-6.25-12.578-17.322l4.727-22.321c2.498-11.786 9.1-17.322 20.785-17.322 10.883 0 16.414 4.643 14.006 15.715l-.982 4.553h-12.756zm6.066 35.357l23.372-54.285h15.343l.268 54.285h-12.935l.446-10.535H131.4l-3.747 10.535h-12.756zM143.8 12.59h-.179l-8.831 24.286h7.404L143.8 12.59zm12.578 44.463l11.507-54.285h12.757l-11.508 54.285h-12.756zm30.062 0h-12.756l11.507-54.285h18.555c10.437 0 14.719 4.196 12.4 15-1.249 5.803-3.48 9.91-9.367 12.41v.18c3.39.803 5.352 3.213 4.817 7.053-.535 4.375-2.498 13.66-2.498 17.142.179.715.357 1.34.803 1.876l-.178.714h-13.916c-.179-.982-.179-2.054-.09-3.125.803-4.732 2.052-9.286 2.409-12.59.357-3.303-.178-5.535-3.122-5.714h-4.193l-4.371 21.34zm6.69-31.25h4.372c3.657 0 5.263-3.392 5.976-6.696 1.338-6.428-1.249-6.696-7.493-6.607l-2.855 13.303zm22.123 23.929c2.052 0 3.747 1.607 3.747 3.75s-1.695 3.75-3.747 3.75c-2.051 0-3.746-1.607-3.746-3.75s1.695-3.75 3.746-3.75zm0 6.965c1.695 0 3.123-1.43 3.123-3.215s-1.339-3.214-3.123-3.214c-1.784 0-3.122 1.428-3.122 3.214s1.338 3.215 3.122 3.215zm-1.427-5.447h1.695c1.07 0 1.516.447 1.516 1.25 0 .804-.535 1.16-1.159 1.16l1.249 1.965h-.714l-1.16-1.875h-.713v1.875h-.714V51.25zm.624 1.964h.714c.625 0 1.16 0 1.16-.714 0-.625-.535-.714-.981-.714h-.893v1.428z" fill="#707070"/></svg>