<svg width="232" height="80" fill="none" xmlns="http://www.w3.org/2000/svg"><g clip-path="url(#clip0_2001_285)"><path d="M14.477 38.09l-.82 3.91c-.637 3.182-.272 6 3.916 6 3.005 0 4.917-2.727 5.554-5.545C24.13 37.818 20.67 36 17.664 34c-3.46-2.273-6.465-4.454-8.286-7.182C7.648 24 6.92 20.636 8.013 15.728 10.198 5.272 17.573 0 27.589 0c11.29 0 15.479 7.545 12.656 17.91H28.317c.546-3.274 1.639-7.637-2.55-8-2.64-.183-4.46 1.272-5.28 3.726-1.093 3.273.273 5 2.458 6.819 4.188 3.09 8.013 5 10.471 7.818 2.458 2.818 3.46 6.454 2.003 13.182C33.143 52.09 26.041 58 15.206 58 3.278 58-.274 51.364 1.275 44.09l1.274-5.908h11.928v-.091zM45.799 1.364h33.69l-2.368 11.09H66.65l-9.47 44.182H44.16l9.379-44.182H43.431l2.367-11.09zM108.625 39c-2.641 12.455-8.377 18.91-21.488 18.91-13.112 0-16.299-6.455-13.658-18.91l4.826-22.454C80.49 5.909 88.047 0 99.428 0c11.382 0 16.208 5.91 14.023 16.546L108.625 39zm-8.377-21.636c.728-3.364 1.275-7.455-3.005-7.455-4.097 0-5.554 4.091-6.191 7.455L86.226 40.09c-.637 3.183-1.184 7.91 3.005 7.91 4.188 0 5.463-4.727 6.191-7.91l4.826-22.726zM147.777 39c-2.64 12.455-8.377 18.91-21.488 18.91-13.112 0-16.298-6.455-13.658-18.91l4.826-22.454C119.551 5.909 127.199 0 138.581 0c11.381 0 16.207 5.91 14.022 16.546L147.777 39zM139.4 17.364c.729-3.364 1.275-7.455-3.004-7.455-4.098 0-5.555 4.091-6.192 7.455l-4.826 22.727c-.637 3.182-1.183 7.909 3.005 7.909s5.463-4.727 6.192-7.91l4.825-22.726zm8.286 39.272l11.746-55.272h14.113c4.734 0 10.38.181 14.022 2.545 4.37 2.91 4.097 8.364 2.913 13.636l-5.19 24.546c-1.274 5.545-3.824 9.545-8.103 11.909-3.824 2.182-8.104 2.545-12.11 2.545h-17.391v.091zm15.115-10c8.559.546 9.378-2.909 10.744-10.363l3.824-18.091c1.275-6.455-.728-6.818-7.102-7l-7.466 35.454zm45.617-27.272h.182l10.471-18.091h13.02l-20.213 32.09-4.917 23.182H193.94l4.917-23.181-6.282-32.091h13.202l2.641 18.09zm5.554 29.818c2.094 0 3.824 1.636 3.824 3.818 0 2.182-1.73 3.818-3.824 3.818s-3.824-1.636-3.824-3.818c0-2.182 1.73-3.818 3.824-3.818zm0 7.09c1.73 0 3.187-1.454 3.187-3.272 0-1.818-1.366-3.273-3.187-3.273-1.821 0-3.187 1.455-3.187 3.273.091 1.818 1.457 3.273 3.187 3.273zm-1.457-5.545h1.73c1.093 0 1.548.455 1.548 1.273 0 .818-.547 1.182-1.184 1.182l1.275 2h-.729l-1.183-1.91h-.729v1.91h-.728v-4.455zm.728 2h.729c.637 0 1.183 0 1.183-.727 0-.636-.546-.727-1.001-.727h-.911v1.454z" fill="#707070"/><path d="M206.597 65H.637v15h205.96V65z" fill="#F2F2F2"/><path d="M118.185 68.818h.82l3.095 7.91h-.819l-1.002-2.455h-3.642l-.91 2.454h-.82l3.278-7.909zm-1.183 4.727h3.095l-1.548-4.09-1.547 4.09zm5.918-4.727h.819l4.644 6.637v-6.728h.728v7.91h-.819l-4.644-6.728v6.727h-.728v-7.818zm10.653 0h5.918v1.455h-4.188V72h3.824v1.364h-3.824v1.909h4.279v1.454h-6.009v-7.909zm8.104 5.273c0 1.09.819 1.455 1.73 1.455.637 0 1.547-.182 1.547-1 0-.819-1.183-1-2.367-1.273-1.184-.273-2.367-.727-2.367-2.273 0-1.636 1.548-2.364 3.004-2.364 1.639 0 3.187.728 3.187 2.546h-1.639c-.091-1-.728-1.182-1.548-1.182-.546 0-1.183.273-1.183.91 0 .636.364.727 2.367 1.181.546.182 2.368.546 2.368 2.273 0 1.454-1.184 2.545-3.278 2.545-1.73 0-3.369-.909-3.369-2.818h1.548zm8.012-5.273h1.821l3.005 7.91h-1.821L152.056 75h-3.004l-.638 1.727h-1.73l3.005-7.909zm-.182 4.818h2.094l-1.001-2.909-1.093 2.91zm5.645-4.818h3.733c1.548 0 2.55.455 2.55 2 0 .818-.364 1.273-1.093 1.636 1.002.273 1.457 1 1.457 2 0 1.637-1.366 2.273-2.823 2.273h-3.824v-7.909zm1.73 3.182h1.73c.638 0 1.093-.273 1.093-.91 0-.726-.546-.908-1.184-.908h-1.639V72zm0 3.364h1.912c.729 0 1.275-.182 1.275-1 0-.819-.546-1.091-1.275-1.091h-1.912v2.09zm11.382-6.546h3.369c1.365 0 2.549.455 2.549 1.91 0 .817-.546 1.636-1.366 1.817 1.002.182 1.639.91 1.639 1.91 0 .727-.273 2.272-2.822 2.272h-3.369v-7.909zm.728 3.455h2.641c1.183 0 1.821-.637 1.821-1.364 0-1-.638-1.455-1.821-1.455h-2.641v2.819zm0 3.818h2.641c1.092 0 2.094-.364 2.094-1.636 0-1-.729-1.546-2.094-1.546h-2.641v3.182zm6.01-7.273h3.642c1.274 0 2.458.636 2.458 2.091 0 1-.546 1.818-1.548 2 1.002.09 1.366.818 1.366 1.818 0 .546 0 1.637.364 2h-.819c-.182-.273-.182-.909-.182-1.273-.091-1.09-.183-2.363-1.548-2.272h-3.005v3.545h-.728v-7.909zm.728 3.727h2.823c.91 0 1.73-.545 1.73-1.545 0-1-.547-1.546-1.73-1.546h-2.823v3.091zm9.196-3.727h.82l3.095 7.91h-.819l-1.002-2.455h-3.642l-.91 2.454h-.82l3.278-7.909zm-1.183 4.727h3.095l-1.548-4.09-1.547 4.09zm5.918-4.727h.819l4.644 6.727v-6.727h.728v7.91h-.819L190.389 70v6.727h-.728v-7.909zm7.102 0h2.731c2.368.091 3.643 1.364 3.643 4s-1.275 3.91-3.643 4h-2.731v-8zm.819 7.273h1.639c2.277 0 3.278-.91 3.278-3.273 0-2.364-1.001-3.364-3.278-3.273h-1.639v6.546zm-32.596-5.909c0 .818-.637 1.545-1.548 1.545a1.534 1.534 0 01-1.548-1.545c0-.818.637-1.546 1.548-1.546.911.091 1.548.728 1.548 1.546zm-2.732 0c0 .727.547 1.273 1.275 1.273.728 0 1.275-.546 1.275-1.273 0-.727-.547-1.273-1.275-1.273-.728 0-1.275.546-1.275 1.273zm.911.909h-.182v-1.727h.637c.364 0 .546.182.546.454 0 .273-.182.455-.455.455l.546.818h-.273l-.455-.818h-.364v.818zm.273-1c.273 0 .546 0 .546-.273 0-.272-.182-.272-.455-.272h-.364v.636h.273v-.091z" fill="#707070"/></g><defs><clipPath id="clip0_2001_285"><path fill="#fff" d="M0 0h232v80H0z"/></clipPath></defs></svg>