<svg width="32" height="32" viewBox="0 0 32 32" fill="none" xmlns="http://www.w3.org/2000/svg">
<path d="M28.5308 9.53009L12.5308 25.5301C12.3902 25.6705 12.1996 25.7494 12.0008 25.7494C11.8021 25.7494 11.6114 25.6705 11.4708 25.5301L4.47082 18.5301C4.33834 18.3879 4.26622 18.1999 4.26965 18.0056C4.27308 17.8113 4.35179 17.6259 4.4892 17.4885C4.62661 17.3511 4.812 17.2723 5.0063 17.2689C5.2006 17.2655 5.38865 17.3376 5.53082 17.4701L12.0008 23.9388L27.4708 8.47009C27.613 8.33761 27.801 8.26549 27.9953 8.26892C28.1896 8.27234 28.375 8.35106 28.5124 8.48847C28.6499 8.62588 28.7286 8.81127 28.732 9.00557C28.7354 9.19987 28.6633 9.38792 28.5308 9.53009Z" fill="#222222"/>
</svg>
