<svg width="32" height="32" viewBox="0 0 32 32" fill="none" xmlns="http://www.w3.org/2000/svg">
<path d="M25.5294 7.52874L7.52936 25.5287C7.38719 25.6612 7.19914 25.7333 7.00484 25.7299C6.81054 25.7265 6.62515 25.6478 6.48774 25.5104C6.35033 25.3729 6.27161 25.1876 6.26819 24.9933C6.26476 24.799 6.33688 24.6109 6.46936 24.4687L24.4694 6.46874C24.5388 6.39821 24.6216 6.34213 24.7129 6.30374C24.8041 6.26535 24.9021 6.24541 25.0011 6.24506C25.1001 6.24472 25.1982 6.26398 25.2897 6.30174C25.3812 6.33949 25.4643 6.39499 25.5343 6.46504C25.6043 6.53509 25.6597 6.6183 25.6973 6.70986C25.735 6.80143 25.7541 6.89954 25.7537 6.99855C25.7532 7.09755 25.7331 7.19548 25.6946 7.28669C25.6561 7.37791 25.6 7.46059 25.5294 7.52999V7.52874ZM6.49936 12.5C5.80521 11.8034 5.37409 10.8877 5.27948 9.90886C5.18488 8.93003 5.43264 7.94868 5.98055 7.13207C6.52846 6.31546 7.34259 5.71412 8.28421 5.43054C9.22582 5.14696 10.2366 5.1987 11.1444 5.57692C12.0521 5.95515 12.8006 6.63646 13.2623 7.50475C13.724 8.37303 13.8703 9.37454 13.6762 10.3386C13.4822 11.3027 12.9598 12.1696 12.1982 12.7917C11.4365 13.4137 10.4827 13.7524 9.49936 13.75C8.94153 13.7501 8.3892 13.6397 7.87428 13.4252C7.35936 13.2106 6.89205 12.8962 6.49936 12.5ZM6.74936 9.49999C6.74957 10.1362 6.97037 10.7527 7.37414 11.2443C7.77791 11.736 8.33966 12.0725 8.96369 12.1964C9.58772 12.3203 10.2354 12.2241 10.7964 11.924C11.3574 11.6239 11.797 11.1386 12.0403 10.5507C12.2836 9.96288 12.3156 9.30885 12.1307 8.70008C11.9459 8.09131 11.5557 7.56546 11.0266 7.21214C10.4975 6.85881 9.86227 6.69987 9.22914 6.76238C8.596 6.8249 8.00413 7.10501 7.55436 7.55499C7.29825 7.80986 7.09523 8.113 6.95705 8.44686C6.81887 8.78072 6.74828 9.13867 6.74936 9.49999ZM26.7494 22.5C26.7518 23.4834 26.4131 24.4372 25.791 25.1988C25.169 25.9604 24.302 26.4828 23.338 26.6768C22.3739 26.8709 21.3724 26.7246 20.5041 26.2629C19.6358 25.8013 18.9545 25.0528 18.5763 24.145C18.1981 23.2373 18.1463 22.2265 18.4299 21.2848C18.7135 20.3432 19.3148 19.5291 20.1314 18.9812C20.9481 18.4333 21.9294 18.1855 22.9082 18.2801C23.8871 18.3747 24.8028 18.8058 25.4994 19.5C25.8955 19.8927 26.21 20.36 26.4246 20.8749C26.6391 21.3898 26.7495 21.9422 26.7494 22.5ZM25.2494 22.5C25.2504 22.1387 25.1797 21.7808 25.0416 21.4469C24.9034 21.1131 24.7004 20.8099 24.4444 20.555C23.9946 20.105 23.4027 19.8249 22.7696 19.7624C22.1364 19.6999 21.5012 19.8588 20.9721 20.2121C20.4431 20.5655 20.0528 21.0913 19.868 21.7001C19.6831 22.3088 19.7151 22.9629 19.9584 23.5507C20.2017 24.1386 20.6413 24.6239 21.2023 24.924C21.7633 25.2241 22.411 25.3203 23.035 25.1964C23.6591 25.0725 24.2208 24.736 24.6246 24.2443C25.0284 23.7527 25.2491 23.1362 25.2494 22.5Z" fill="#222222"/>
</svg>
