<svg width="120" height="205" viewBox="0 0 120 205" fill="none" xmlns="http://www.w3.org/2000/svg">
<path d="M30.2769 109.333C28.7605 91.3139 26.8986 73.1882 37.0135 59.507C42.3752 52.2498 53.444 49.48 61.5081 49.2649C70.5499 49.0231 83.9658 52.9419 89.6967 61.1937C96.3532 70.784 94.7032 82.7119 94.7032 95.894C95.1725 100.259 95.2724 104.683 95.5504 109.333H30.2769Z" fill="#FFDC00"/>
<path d="M69.166 168.937C68.789 167.069 68.4579 165.375 68.1038 163.686C67.567 161.045 67.0101 158.402 66.4247 155.774C66.1992 154.78 66.4933 154.169 67.407 153.707C73.0609 150.86 78.6947 147.97 84.3428 145.117C85.6791 144.44 86.6071 145.038 86.5728 146.541C86.3654 155.841 86.1484 165.15 85.9219 174.466C85.8876 175.89 85.2023 176.379 83.8317 175.969C80.4936 174.974 77.2098 173.772 73.8375 172.968C61.559 170.056 49.4662 170.793 37.5731 174.981C36.9021 175.218 36.2368 175.465 35.5743 175.702C33.2728 176.522 32.7703 176.178 32.7189 173.766C32.6561 170.393 32.5933 167.018 32.5305 163.641C32.2678 150.208 32.006 136.776 31.7452 123.345C31.6967 120.73 30.8401 118.333 29.9177 115.941C29.398 114.589 28.8697 113.239 28.3073 111.788H35.3516C35.3146 112.164 35.3031 112.536 35.2374 112.898C34.772 115.483 34.3466 118.08 33.7954 120.649C33.6155 121.48 33.8611 121.932 34.4264 122.462C40.3144 127.988 46.1653 133.552 52.0618 139.067C52.4275 139.367 52.7108 139.756 52.8855 140.196C53.0603 140.635 53.1207 141.112 53.0612 141.581C52.3445 149.866 51.6734 158.151 51.0024 166.44C50.9453 167.141 51.0024 167.863 51.0024 168.7C57.0403 167.969 63.1494 168.048 69.166 168.937Z" fill="#222222"/>
<path d="M87.5181 111.688H96.9411C96.8412 112.087 96.7983 112.355 96.707 112.602C95.7018 115.375 94.6454 118.128 93.6973 120.921C93.369 121.878 92.9063 122.28 91.7642 121.921C91.4272 120.147 91.0646 118.28 90.7219 116.409C90.3364 114.307 90.3422 114.305 88.1977 114.305H44.2836H42.5018C42.9416 115.611 43.3127 116.782 43.7439 117.929C43.8189 118.036 43.9156 118.126 44.0277 118.194C44.1399 118.262 44.265 118.305 44.3949 118.322C44.8201 118.364 45.2478 118.373 45.6742 118.348C57.8899 118.348 70.1055 118.341 82.3212 118.328C83.2292 118.328 83.6832 118.584 84.0801 119.421C85.7792 123.015 87.5866 126.559 89.3113 130.144C89.4769 130.482 89.5169 131.097 89.3113 131.363C85.8848 135.901 81.8529 139.694 76.3504 141.57C70.2226 143.663 64.3746 142.66 58.8665 139.576C51.0424 135.18 45.6 128.581 41.9992 120.481C37.4477 110.23 37.953 100.046 43.1757 90.1915C46.2339 84.4173 50.7598 80.0525 57.1903 78.1078C64.2775 75.9667 70.5852 77.7207 76.0506 82.4954C82.0727 87.7542 85.188 94.6502 86.5302 102.375C87.0641 105.393 87.1926 108.488 87.5181 111.688ZM41.925 111.642H84.8225C84.6398 109.194 84.5742 106.85 84.2658 104.524C83.3863 97.9758 81.1561 91.9311 76.7816 86.846C73.0238 82.4754 68.3923 79.6852 62.4501 79.8133C57.1503 79.9272 52.79 82.2876 49.2664 86.1313C42.6188 93.386 40.9284 102.093 41.925 111.642Z" fill="#222222"/>
<path d="M74.1344 49.761C74.7656 48.9495 75.528 47.9245 76.3503 46.9536C76.4632 46.8672 76.5955 46.8092 76.7357 46.7849C76.876 46.7606 77.02 46.7706 77.1556 46.8141C81.4188 48.6904 85.7362 50.4785 89.5882 53.1463C90.7125 53.9571 91.7774 54.8468 92.7749 55.8085C94.5053 57.4114 94.788 59.6779 95.3248 61.7877C97.9233 72.0377 98.3887 82.4984 98.0318 93.0103C97.8547 98.3004 97.515 103.588 97.2466 108.875C97.2323 109.16 97.1924 109.444 97.1581 109.78H89.711C89.4711 107.958 89.2713 106.099 88.9743 104.254C87.9378 97.7822 86.1902 91.5411 82.501 86.0176C78.4262 79.9216 72.8124 76.0722 65.4824 74.996C60.2027 74.2214 55.3456 75.5654 50.7483 78.1877C44.7833 81.5986 41.2967 86.9742 39.0123 93.1356C37.2293 98.0474 36.1209 103.177 35.7171 108.385C35.6771 108.844 35.6 109.299 35.5344 109.809H28.0474C27.9274 107.915 27.7619 106.048 27.7047 104.18C27.5276 96.3302 27.1822 88.4747 27.2935 80.6306C27.4204 73.1199 28.6047 65.6642 30.8114 58.482C31.5082 56.2043 33.3015 54.8063 35.1318 53.4965C38.5926 51.0166 42.4503 49.2627 46.3366 47.5744C48.5724 46.6035 48.5781 46.612 50.103 48.457C50.4856 48.9211 50.8482 49.4022 51.2737 49.9432C50.9882 50.1511 50.7426 50.3419 50.4827 50.5127C46.3623 53.0154 42.6616 56.0619 39.038 59.2252C34.9375 62.807 33.0787 67.4394 32.0565 72.6385C30.5345 80.3971 30.306 88.227 30.2404 96.0825C30.2118 99.3872 30.188 102.693 30.169 105.999V107.226H33.1216C33.5127 104.974 33.8182 102.722 34.3008 100.51C35.8771 93.2836 38.3327 86.4304 43.484 80.8897C48.9522 75.0102 55.734 71.7614 63.8005 72.2455C72.8781 72.7864 79.8882 77.2879 84.8254 84.8729C88.5374 90.5673 90.3821 96.9452 91.4928 103.574C91.6585 104.553 91.8155 105.535 91.9155 106.523C91.9754 107.107 92.2209 107.332 92.7977 107.309C93.5002 107.283 94.2026 107.309 94.9679 107.309C94.9879 106.95 95.0193 106.677 95.0164 106.404C94.9337 99.6501 94.9508 92.8936 94.7309 86.1485C94.551 80.827 94.0884 75.5255 92.8492 70.3065C91.707 65.4862 89.3113 61.4802 85.4649 58.4023C81.7985 55.4554 78.0065 52.7051 74.1344 49.761Z" fill="#222222"/>
<path d="M33.567 194.386C33.567 189.758 33.567 185.215 33.5956 180.668C33.6297 180.495 33.7035 180.333 33.8109 180.194C33.9184 180.054 34.0568 179.942 34.2152 179.865C39.4049 177.598 44.8717 176.024 50.4741 175.184C59.2457 173.9 68.1928 174.557 76.6815 177.105C78.9374 177.769 81.1532 178.544 83.0665 179.979C84.7199 181.221 85.8619 183.022 86.2777 185.046C86.6935 187.068 86.3549 189.172 85.325 190.964C84.32 192.715 82.7295 193.645 80.822 194.095C77.8552 194.809 74.9541 194.251 72.0557 193.611C59.7023 190.844 46.8651 191.054 34.6093 194.223C34.3694 194.286 34.1267 194.343 33.8811 194.394C33.7764 194.398 33.6713 194.396 33.567 194.386ZM53.8608 188.557L69.2117 189.808C67.5469 185.366 68.5521 181.695 73.1523 179.096C66.3677 177.51 59.8229 177.029 53.0927 177.757C55.8596 181.342 55.7311 184.947 53.8608 188.557Z" fill="#222222"/>
<path d="M53.8895 14.5123C54.7461 13.7634 55.4114 13.1314 56.1281 12.5762C60.9082 8.87481 67.727 9.44425 71.4733 13.8005C72.8611 15.4206 73.7206 17.3083 73.7434 19.4266C73.8177 26.8864 73.8006 34.3461 73.8205 41.8087C73.8205 42.4549 73.6235 42.976 72.8782 42.9475C72.133 42.919 72.0073 42.3354 72.0073 41.7261C72.0073 38.596 72.0073 35.4688 72.0073 32.3445C72.0073 28.5064 71.9245 24.657 72.0073 20.8331C72.1786 13.399 64.5003 9.95106 58.6923 13.1628C57.5016 13.8233 56.4507 14.7799 55.4514 15.7253C54.3349 16.7787 53.8237 18.0628 53.8523 19.7114C53.9551 25.2862 53.8923 30.8667 53.8895 36.4445C53.8895 36.7292 53.9865 37.0708 53.8609 37.2845C53.6524 37.6317 53.2355 38.1813 53.0271 38.1386C52.653 38.0532 52.3246 37.6147 52.0704 37.2588C51.9506 37.0937 52.0419 36.7748 52.0419 36.5271C52.0419 28.3897 52.0419 20.2532 52.0419 12.1178C52.0419 11.9042 51.9648 11.6309 52.0704 11.4914C52.3545 11.142 52.6627 10.8128 52.9928 10.5063C53.2926 10.8422 53.8066 11.1497 53.8495 11.5199C53.9722 12.4309 53.8895 13.3848 53.8895 14.5123Z" fill="#222222"/>
<path d="M46.7221 27.6239V20.0532C46.7221 19.8395 46.645 19.5748 46.7421 19.421C46.9962 19.0224 47.2846 18.4188 47.6415 18.3561C48.3411 18.2337 48.5553 18.8202 48.5553 19.4779C48.5553 23.5666 48.5181 27.6552 48.5839 31.741C48.6152 33.7596 48.6239 35.8153 49.0178 37.777C49.3811 39.7351 50.3627 41.5261 51.8189 42.8886C53.2752 44.2511 55.1303 45.1138 57.1131 45.3507C60.4369 45.7749 63.2009 44.4652 65.4339 42.0992C66.4704 41.0001 67.2614 39.6676 68.1551 38.4348C68.3608 38.1501 68.455 37.7258 68.7263 37.5521C68.9975 37.3785 69.5829 37.1962 69.8198 37.3415C70.0569 37.4867 70.3509 38.1301 70.2368 38.3835C67.4099 44.6474 60.9936 49.2029 54.1548 46.4696C49.7432 44.7044 47.4074 41.1652 46.9333 36.5699C46.6307 33.6173 46.8763 30.6077 46.8763 27.6239H46.7221Z" fill="#222222"/>
<path d="M62.7356 17.5079C63.9462 17.5079 65.1542 17.4879 66.362 17.5079C68.0924 17.5449 69.0861 18.4987 69.1461 20.1984C69.186 21.2975 69.1831 22.4022 69.1461 23.4984C69.0832 25.1413 68.0809 26.1606 66.4505 26.1833C63.9263 26.2175 61.4021 26.2204 58.8778 26.1833C57.2331 26.1549 56.2508 25.1356 56.2023 23.4927C56.1699 22.4279 56.1699 21.363 56.2023 20.2981C56.2565 18.5157 57.2302 17.5506 59.0063 17.5135C60.2485 17.4879 61.4934 17.5079 62.7356 17.5079ZM62.6728 24.3412C63.8806 24.3412 65.0884 24.3412 66.2963 24.3412C66.9559 24.3412 67.31 24.0565 67.3185 23.3988C67.3329 22.3709 67.3329 21.3402 67.3185 20.3124C67.3043 19.649 66.9873 19.2646 66.262 19.2674C63.9149 19.2788 61.5687 19.2788 59.2234 19.2674C58.421 19.2674 58.0355 19.6262 58.0326 20.4063C58.0326 21.3288 58.0326 22.2513 58.0326 23.1738C58.0184 24.028 58.421 24.3782 59.2804 24.3468C60.3941 24.3127 61.5334 24.344 62.6728 24.3412Z" fill="#222222"/>
<path d="M62.5099 52.0271C63.172 52.0048 63.8233 52.1988 64.3646 52.5797C64.9059 52.9606 65.3075 53.5075 65.5082 54.1369C66.2021 56.0873 65.8822 57.9409 64.7744 59.6207C63.4923 61.5653 61.3477 61.5596 60.0885 59.6008C59.0805 58.0206 58.7151 56.2582 59.2862 54.4132C59.7487 52.8101 60.8509 52.0158 62.5099 52.0271Z" fill="#222222"/>
<path d="M72.6154 61.2838L65.8651 59.5755C66.0679 57.6878 66.2535 55.9224 66.4591 53.9864L72.6154 52.4204V61.2838Z" fill="#222222"/>
<path d="M59.0005 59.5982L52.356 61.3065V52.4204L58.4294 53.9636L59.0005 59.5982Z" fill="#222222"/>
<path d="M48.5554 10.7682C48.5554 11.1582 48.6696 11.5967 48.5268 11.927C48.384 12.2573 48.0185 12.7185 47.6702 12.7811C47.4275 12.8324 46.842 12.3711 46.8136 12.0893C46.7021 11.1758 46.7021 10.2523 46.8136 9.33886C46.8507 9.05414 47.4275 8.5815 47.6702 8.63275C47.8647 8.70786 48.0413 8.82262 48.1889 8.9697C48.3364 9.11679 48.4514 9.29294 48.5268 9.48692C48.6725 9.85421 48.5582 10.324 48.5582 10.7511L48.5554 10.7682Z" fill="#222222"/>
<path d="M41.9251 111.642C40.9284 102.098 42.6189 93.3916 49.2664 86.1455C52.7901 82.3017 57.1503 79.9414 62.45 79.8275C68.3922 79.6993 73.0153 82.4897 76.7816 86.8601C81.1561 91.9396 83.3863 97.9757 84.2657 104.524C84.5741 106.836 84.6398 109.18 84.8226 111.642H41.9251Z" fill="#FFDC00"/>
<path d="M62.7126 84.2778L64.5909 92.5689L71.7987 88.0306L67.2471 95.2176L75.5622 97.0903L67.2471 98.9631L71.7987 106.15L64.5909 101.612L62.7126 109.903L60.8343 101.612L53.6266 106.15L58.1782 98.9631L49.863 97.0903L58.1782 95.2176L53.6266 88.0306L60.8343 92.5689L62.7126 84.2778Z" fill="white"/>
</svg>
