<svg width="24" height="24" viewBox="0 0 24 24" fill="none" xmlns="http://www.w3.org/2000/svg">
<path fill-rule="evenodd" clip-rule="evenodd" d="M11.735 1.576C11.8145 1.52633 11.9063 1.5 12 1.5C12.0937 1.5 12.1855 1.52633 12.265 1.576L14.395 2.906C15.5655 3.63771 16.8813 4.10557 18.251 4.277L20.062 4.504C20.1829 4.51911 20.2941 4.57785 20.3748 4.66918C20.4554 4.76051 20.5 4.87815 20.5 5V11.457C20.5 13.2379 20.0471 14.9895 19.1838 16.5471C18.3205 18.1047 17.0752 19.4171 15.565 20.361L12.265 22.424C12.1855 22.4737 12.0937 22.5 12 22.5C11.9063 22.5 11.8145 22.4737 11.735 22.424L8.435 20.361C6.92484 19.4171 5.67955 18.1047 4.81624 16.5471C3.95294 14.9895 3.5 13.2379 3.5 11.457V5C3.50003 4.87815 3.54456 4.76051 3.62521 4.66918C3.70587 4.57785 3.81709 4.51911 3.938 4.504L5.749 4.277C7.11894 4.10601 8.43515 3.6385 9.606 2.907L11.735 1.576ZM12 2.59L10.136 3.755C8.84197 4.56378 7.38721 5.08078 5.873 5.27L4.5 5.44V11.457C4.50017 13.0681 4.91006 14.6527 5.69113 16.0617C6.47221 17.4708 7.5988 18.6581 8.965 19.512L12 21.41L15.035 19.513C16.4013 18.659 17.528 17.4716 18.3091 16.0623C19.0902 14.653 19.5 13.0683 19.5 11.457V5.442L18.127 5.271C16.6128 5.08178 15.158 4.56478 13.864 3.756L12 2.59Z" fill="#222222"/>
<path fill-rule="evenodd" clip-rule="evenodd" d="M15.854 9.35448L11.854 13.3545C11.7602 13.4482 11.6331 13.5009 11.5005 13.5009C11.3679 13.5009 11.2407 13.4482 11.147 13.3545L9.14697 11.3545L9.85397 10.6475L11.5 12.2935L15.147 8.64648L15.854 9.35448Z" fill="#222222"/>
</svg>
