<svg width="48" height="48" viewBox="0 0 48 48" fill="none" xmlns="http://www.w3.org/2000/svg">
<rect width="48" height="48" rx="24" fill="white"/>
<path d="M40.96 24.4224C40.96 23.1666 40.8476 21.9591 40.6388 20.7998H24V27.6506H33.5079C33.0983 29.8645 31.8536 31.7402 29.9826 32.996V37.4398H35.6921C39.0327 34.3565 40.96 29.8162 40.96 24.4224Z" fill="#4285F4"/>
<path d="M23.9472 41.6002C28.6686 41.6002 32.627 40.0083 35.5203 37.2931L29.8689 32.8325C28.303 33.8992 26.3 34.5295 23.9472 34.5295C19.3927 34.5295 15.5376 31.4022 14.1625 27.2002H8.32031V31.8063C11.1977 37.6164 17.1114 41.6002 23.9472 41.6002Z" fill="#34A853"/>
<path d="M14.0784 27.3846C13.7297 26.3158 13.5316 25.1741 13.5316 24C13.5316 22.8259 13.7297 21.6842 14.0784 20.6154V16H8.25305C7.03249 18.4824 6.39736 21.222 6.39844 24C6.39844 26.8745 7.07212 29.5951 8.25305 32L14.0784 27.3846Z" fill="#FBBC05"/>
<path d="M24.0575 13.4706C26.643 13.4706 28.9643 14.3676 30.7894 16.1292L35.8403 11.0302C32.7905 8.16152 28.8042 6.3999 24.0575 6.3999C17.1735 6.3999 11.218 10.3837 8.32031 16.1938L14.2037 20.7999C15.5885 16.5979 19.4708 13.4706 24.0575 13.4706Z" fill="#EA4335"/>
</svg>
