<svg width="20" height="20" viewBox="0 0 20 20" fill="none" xmlns="http://www.w3.org/2000/svg">
<path d="M5.87138 16.4524C5.87138 16.166 5.87138 15.8795 5.87138 15.5931C5.87341 15.5813 5.873 15.5693 5.87017 15.5578C5.86733 15.5462 5.86214 15.5354 5.8549 15.5259C5.84767 15.5164 5.83855 15.5085 5.8281 15.5027C5.81766 15.4969 5.80612 15.4932 5.79419 15.4919C5.07763 15.2902 4.41625 14.9309 3.85935 14.4407C3.45358 14.075 3.11573 13.6415 2.86118 13.1601C2.50239 12.4646 2.26362 11.7146 2.15475 10.941C2.01986 9.97062 1.97301 8.99023 2.01477 8.01157C2.02392 7.55531 2.04747 7.10423 2.0998 6.64797C2.18326 5.78093 2.40399 4.93233 2.75391 4.13334C3.18598 3.15095 3.96983 2.36183 4.95432 1.91813C5.62496 1.61405 6.33048 1.39206 7.05531 1.25707C7.76612 1.12367 8.4858 1.04179 9.20863 1.01209C9.86019 0.989256 10.5125 0.998774 11.1631 1.0406C12.0943 1.07955 13.017 1.23236 13.9103 1.49557C14.5727 1.68475 15.2028 1.97091 15.7798 2.34458C16.342 2.72698 16.7967 3.24486 17.1011 3.84947C17.4589 4.55563 17.7022 5.31327 17.8219 6.09449C17.8997 6.55831 17.9508 7.02612 17.975 7.49568C18.009 8.07768 18.005 8.66226 17.9828 9.24167C17.9606 9.82107 17.9109 10.3836 17.8389 10.9514C17.748 11.8035 17.4836 12.6285 17.0618 13.3765C16.5128 14.3229 15.6334 15.0375 14.5893 15.3857C13.8754 15.6334 13.1382 15.8097 12.3889 15.9119C11.8407 15.9871 11.2913 16.0415 10.7392 16.0636C10.3167 16.083 9.89413 16.0778 9.47158 16.0714C9.23217 16.0714 8.99408 16.048 8.75598 16.0273C8.73261 16.0229 8.70845 16.0255 8.68657 16.0347C8.66468 16.044 8.64605 16.0594 8.63301 16.0791C8.15159 16.652 7.65185 17.2094 7.14819 17.7642C7.05645 17.8654 6.95023 17.9527 6.83291 18.0234C6.75591 18.0735 6.6681 18.1049 6.57658 18.1151C6.48506 18.1254 6.39239 18.1141 6.30606 18.0823C6.21973 18.0505 6.14216 17.9991 6.0796 17.9321C6.01705 17.8651 5.97126 17.7845 5.94595 17.6968C5.89609 17.5409 5.87137 17.3781 5.87268 17.2146C5.87138 16.958 5.87138 16.7052 5.87138 16.4524ZM6.45353 17.5399L6.51502 17.4829L7.60737 16.2813C8.02775 15.819 8.44768 15.3563 8.86718 14.8931C8.8878 14.8648 8.91562 14.8425 8.9478 14.8284C8.97998 14.8143 9.01536 14.8089 9.05033 14.8127C9.19293 14.827 9.33552 14.8322 9.47943 14.8335C9.97655 14.8335 10.4737 14.8335 10.9708 14.7985C11.4221 14.7635 11.8721 14.709 12.3196 14.639C12.8013 14.556 13.2781 14.4474 13.7481 14.3137C14.7947 14.035 15.6045 13.4388 16.1134 12.4731C16.4138 11.8794 16.6022 11.2363 16.6694 10.5755C16.7489 9.95261 16.7965 9.32618 16.812 8.69856C16.8351 7.91014 16.7808 7.12135 16.6497 6.34336C16.5589 5.7797 16.3953 5.22994 16.1631 4.70756C15.8674 4.05945 15.4488 3.52283 14.8039 3.17804C13.8148 2.64919 12.7447 2.41328 11.6419 2.29273C11.3292 2.25903 11.0166 2.24088 10.7026 2.22922C10.0597 2.19638 9.41548 2.19984 8.77299 2.23959C8.31094 2.27356 7.85136 2.33503 7.39675 2.42365C6.72819 2.5444 6.08143 2.76281 5.47761 3.07175C5.12754 3.24701 4.80996 3.47972 4.53831 3.76003C4.09805 4.24758 3.77511 4.82771 3.59378 5.45676C3.37866 6.18938 3.26124 6.94674 3.24449 7.70956C3.20239 8.47237 3.21201 9.23711 3.27327 9.99865C3.31138 10.4518 3.38796 10.9011 3.5022 11.3415C3.67218 12.0279 4.00192 12.6653 4.46505 13.2029C4.96505 13.7512 5.61128 14.1485 6.32925 14.3487C6.41952 14.3759 6.46007 14.407 6.46007 14.5081C6.45222 14.8814 6.46007 15.2547 6.46007 15.628L6.45353 17.5399Z" fill="white"/>
<path d="M5.53767 5.96237C5.52852 5.6785 5.68419 5.47241 5.87257 5.28705C6.12103 5.05123 6.39477 4.84303 6.6889 4.66617C6.82302 4.58421 6.9825 4.55299 7.13801 4.57823C7.29351 4.60347 7.43459 4.68349 7.53531 4.80357C7.89119 5.17422 8.20972 5.57839 8.48638 6.01033C8.62338 6.20463 8.72683 6.42015 8.7925 6.64806C8.81875 6.737 8.82046 6.83129 8.79745 6.92111C8.77444 7.01092 8.72756 7.09299 8.66168 7.15877C8.51076 7.30555 8.34992 7.44197 8.18026 7.56707C8.09478 7.63457 8.03122 7.72549 7.99749 7.82851C7.96376 7.93153 7.96135 8.04211 7.99057 8.14647C8.09534 8.63654 8.33276 9.0891 8.67738 9.45563C9.09613 9.96215 9.63567 10.3573 10.2472 10.6054C10.3975 10.6819 10.5697 10.7052 10.7352 10.6715C10.8258 10.647 10.9064 10.5948 10.9654 10.5224C11.057 10.407 11.1564 10.2956 11.2389 10.1724C11.3458 10.0188 11.509 9.91268 11.6937 9.8766C11.8785 9.84052 12.0701 9.87737 12.2279 9.9793C12.6713 10.2342 13.09 10.5293 13.4785 10.8607C13.5701 10.9385 13.6656 11.0137 13.7572 11.0927C13.8655 11.1746 13.9438 11.2895 13.9799 11.4196C14.0161 11.5498 14.0081 11.6881 13.9573 11.8134C13.8765 12.0241 13.7587 12.2189 13.6093 12.3889C13.4237 12.6445 13.1873 12.8598 12.9147 13.0215C12.7843 13.0973 12.6379 13.1419 12.487 13.1515C12.3362 13.1612 12.1852 13.1358 12.046 13.0772C10.9876 12.655 9.99861 12.0788 9.11171 11.3675C8.24423 10.66 7.48613 9.83021 6.86158 8.90475C6.33606 8.13861 5.91798 7.30532 5.61878 6.42771C5.58692 6.32156 5.56072 6.21383 5.54029 6.10496C5.53447 6.05764 5.5336 6.00986 5.53767 5.96237Z" fill="white"/>
<path d="M10.0546 4.5833C10.9402 4.59952 11.7919 4.92318 12.4613 5.49784C13.1307 6.0725 13.5753 6.86171 13.7176 7.72788C13.7749 8.0428 13.8056 8.36191 13.8092 8.68189C13.8092 8.75707 13.7896 8.81151 13.7085 8.81928C13.6274 8.82706 13.6064 8.75836 13.6064 8.68966C13.6186 8.04244 13.4845 7.40071 13.214 6.81147C12.9862 6.3273 12.6487 5.90173 12.2278 5.56788C11.8069 5.23402 11.3139 5.00089 10.7872 4.88661C10.5088 4.82273 10.224 4.78969 9.9382 4.7881C9.91037 4.78857 9.88261 4.78508 9.85579 4.77773C9.83294 4.77135 9.8135 4.75643 9.80154 4.73612C9.78958 4.71581 9.78605 4.69169 9.79168 4.66885C9.79185 4.65801 9.7942 4.64732 9.79858 4.63739C9.80296 4.62746 9.80929 4.61849 9.81721 4.61101C9.82512 4.60353 9.83446 4.59769 9.84468 4.59382C9.85489 4.58995 9.86578 4.58814 9.87672 4.58849C9.93559 4.58071 9.99576 4.5833 10.0546 4.5833Z" fill="white"/>
<path d="M12.5792 8.09844C12.5748 7.73834 12.4853 7.38426 12.3178 7.06462C12.1504 6.74498 11.9097 6.46866 11.615 6.25784C11.2711 6.01847 10.8713 5.86991 10.4533 5.8262C10.3827 5.81713 10.312 5.81324 10.2401 5.80546C10.1681 5.79768 10.125 5.76787 10.1315 5.69528C10.1381 5.6227 10.1838 5.59677 10.2623 5.60196C11.4214 5.67195 12.4078 6.32135 12.7113 7.5307C12.7668 7.76389 12.7945 8.00273 12.7937 8.24232C12.7937 8.26435 12.7937 8.28639 12.7937 8.30713C12.7937 8.37194 12.7519 8.41471 12.6878 8.41342C12.6735 8.41294 12.6596 8.4096 12.6467 8.4036C12.6338 8.3976 12.6223 8.38906 12.6129 8.37851C12.6035 8.36795 12.5963 8.3556 12.5919 8.34222C12.5874 8.32883 12.5858 8.31469 12.587 8.30065C12.5766 8.23973 12.5792 8.17751 12.5792 8.09844Z" fill="white"/>
<path d="M10.5491 6.65443C11.1849 6.6972 11.6284 7.0057 11.75 7.67584C11.7648 7.76169 11.7753 7.8482 11.7814 7.93508C11.7814 8.00507 11.7657 8.0647 11.6886 8.0647C11.6114 8.0647 11.5852 8.01285 11.5826 7.93508C11.5819 7.6782 11.502 7.42766 11.3537 7.21698C11.1978 7.02616 10.974 6.90184 10.7283 6.8696C10.6734 6.85942 10.6179 6.8525 10.5622 6.84886C10.4706 6.84886 10.4196 6.80349 10.4314 6.7335C10.4431 6.6635 10.4981 6.65054 10.5491 6.65443Z" fill="white"/>
</svg>
