<svg width="32" height="32" viewBox="0 0 32 32" fill="none" xmlns="http://www.w3.org/2000/svg">
<path d="M25.53 24.47C25.6037 24.5387 25.6628 24.6215 25.7038 24.7135C25.7448 24.8055 25.7668 24.9048 25.7686 25.0055C25.7704 25.1062 25.7519 25.2062 25.7142 25.2996C25.6764 25.393 25.6203 25.4778 25.5491 25.549C25.4778 25.6203 25.393 25.6764 25.2996 25.7141C25.2062 25.7518 25.1062 25.7704 25.0055 25.7686C24.9048 25.7668 24.8055 25.7448 24.7135 25.7038C24.6215 25.6628 24.5387 25.6037 24.47 25.53L16 17.0612L7.53003 25.53C7.38785 25.6625 7.19981 25.7346 7.00551 25.7312C6.81121 25.7277 6.62582 25.649 6.48841 25.5116C6.35099 25.3742 6.27228 25.1888 6.26885 24.9945C6.26543 24.8002 6.33755 24.6122 6.47003 24.47L14.9388 16L6.47003 7.53C6.33755 7.38782 6.26543 7.19978 6.26885 7.00548C6.27228 6.81118 6.35099 6.62579 6.48841 6.48838C6.62582 6.35096 6.81121 6.27225 7.00551 6.26882C7.19981 6.2654 7.38785 6.33752 7.53003 6.47L16 14.9387L24.47 6.47C24.6122 6.33752 24.8003 6.2654 24.9946 6.26882C25.1889 6.27225 25.3742 6.35096 25.5117 6.48838C25.6491 6.62579 25.7278 6.81118 25.7312 7.00548C25.7346 7.19978 25.6625 7.38782 25.53 7.53L17.0613 16L25.53 24.47Z" fill="#222222"/>
</svg>
