<svg width="20" height="20" viewBox="0 0 20 20" fill="none" xmlns="http://www.w3.org/2000/svg">
<path d="M3.00642 9.06655C3.00642 9.06655 10.2667 6.00865 12.7846 4.93189C13.7499 4.50122 17.0233 3.12297 17.0233 3.12297C17.0233 3.12297 18.5341 2.52003 18.4082 3.98436C18.3662 4.58736 18.0305 6.69772 17.6948 8.98041C17.1912 12.2106 16.6456 15.7423 16.6456 15.7423C16.6456 15.7423 16.5617 16.7329 15.8482 16.9052C15.1348 17.0775 13.9597 16.3023 13.7499 16.1299C13.582 16.0008 10.6024 14.0626 9.51126 13.1151C9.21748 12.8567 8.88176 12.3399 9.55319 11.7369C11.064 10.3156 12.8686 8.54975 13.9597 7.42995C14.4633 6.91309 14.9669 5.70716 12.8686 7.17149C9.88897 9.28191 6.95129 11.2631 6.95129 11.2631C6.95129 11.2631 6.27981 11.6938 5.02082 11.3061C3.76177 10.9186 2.29294 10.4017 2.29294 10.4017C2.29294 10.4017 1.28579 9.75568 3.00642 9.06655Z" fill="white"/>
</svg>
