<svg width="24" height="24" viewBox="0 0 24 24" fill="none" xmlns="http://www.w3.org/2000/svg">
<path d="M21.7949 7.54597L9.79492 19.546C9.6904 19.6509 9.56621 19.7341 9.42947 19.7909C9.29272 19.8476 9.14611 19.8769 8.99804 19.8769C8.84998 19.8769 8.70337 19.8476 8.56662 19.7909C8.42988 19.7341 8.30569 19.6509 8.20117 19.546L2.95117 14.296C2.84652 14.1913 2.76351 14.0671 2.70688 13.9304C2.65024 13.7936 2.62109 13.6471 2.62109 13.4991C2.62109 13.3511 2.65024 13.2046 2.70688 13.0678C2.76351 12.9311 2.84652 12.8069 2.95117 12.7022C3.05582 12.5976 3.18005 12.5146 3.31678 12.4579C3.45351 12.4013 3.60005 12.3721 3.74805 12.3721C3.89604 12.3721 4.04258 12.4013 4.17931 12.4579C4.31604 12.5146 4.44027 12.5976 4.54492 12.7022L8.99898 17.1563L20.203 5.9541C20.4144 5.74276 20.701 5.62402 20.9999 5.62402C21.2988 5.62402 21.5854 5.74276 21.7968 5.9541C22.0081 6.16544 22.1269 6.45209 22.1269 6.75098C22.1269 7.04986 22.0081 7.33651 21.7968 7.54785L21.7949 7.54597Z" fill="#FFDC00"/>
</svg>
