<svg width="24" height="24" viewBox="0 0 24 24" fill="none" xmlns="http://www.w3.org/2000/svg">
<path d="M19.2271 15.26L16.6871 14.97C16.3884 14.9349 16.0857 14.968 15.8017 15.0667C15.5176 15.1654 15.2596 15.3273 15.0471 15.54L13.2071 17.38C10.3685 15.9359 8.06117 13.6286 6.61711 10.79L8.46711 8.94001C8.89711 8.51001 9.10711 7.91001 9.03711 7.30001L8.74711 4.78001C8.69063 4.2921 8.45658 3.84204 8.08957 3.51561C7.72257 3.18918 7.24828 3.00921 6.75711 3.01001H5.02711C3.89711 3.01001 2.95711 3.95001 3.02711 5.08001C3.55711 13.62 10.3871 20.44 18.9171 20.97C20.0471 21.04 20.9871 20.1 20.9871 18.97V17.24C20.9971 16.23 20.2371 15.38 19.2271 15.26Z" fill="#FFDC00"/>
</svg>
