<svg width="20" height="20" viewBox="0 0 20 20" fill="none" xmlns="http://www.w3.org/2000/svg">
<g clip-path="url(#clip0_2200_10739)">
<path d="M19.3735 9.37521H11.457C11.112 9.37521 10.832 9.09521 10.832 8.75022C10.832 8.40524 11.112 8.12524 11.457 8.12524H19.3735C19.7185 8.12524 19.9985 8.40524 19.9985 8.75022C19.9985 9.09521 19.7185 9.37521 19.3735 9.37521Z" fill="#707070"/>
<path d="M16.2495 12.5003C16.1674 12.5005 16.0861 12.4844 16.0103 12.453C15.9344 12.4215 15.8656 12.3753 15.8077 12.3171C15.5636 12.0728 15.5636 11.677 15.8077 11.4329L18.4911 8.74968L15.8077 6.06636C15.5636 5.82223 15.5636 5.42642 15.8077 5.18229C16.052 4.938 16.4478 4.938 16.692 5.18229L19.8169 8.30719C20.061 8.55132 20.061 8.94713 19.8169 9.19127L16.692 12.3162C16.6341 12.3747 16.5652 12.4211 16.4892 12.4527C16.4133 12.4843 16.3318 12.5005 16.2495 12.5003ZM6.66651 20.0001C6.48816 20.0001 6.31894 19.9751 6.14985 19.9226L1.13493 18.2518C0.452525 18.0135 0 17.3776 0 16.6669V1.6674C0 0.748248 0.747516 0.000732422 1.66667 0.000732422C1.84486 0.000732422 2.01412 0.0257316 2.18333 0.07823L7.1981 1.74904C7.88061 1.98735 8.33302 2.62319 8.33302 3.33391V18.3334C8.33302 19.2526 7.58566 20.0001 6.66651 20.0001ZM1.66667 1.25069C1.43749 1.25069 1.24996 1.43819 1.24996 1.6674V16.6669C1.24996 16.8444 1.3691 17.0093 1.53909 17.0685L6.53054 18.7318C6.5664 18.7434 6.61311 18.7501 6.66651 18.7501C6.89568 18.7501 7.08306 18.5626 7.08306 18.3334V3.33391C7.08306 3.15645 6.96392 2.9915 6.79393 2.93232L1.80248 1.26901C1.76662 1.25741 1.71991 1.25069 1.66667 1.25069Z" fill="#707070"/>
<path d="M12.7092 6.667C12.3642 6.667 12.0842 6.38701 12.0842 6.04202V2.29214C12.0842 1.71793 11.6168 1.25045 11.0427 1.25045H1.66795C1.32296 1.25045 1.04297 0.970458 1.04297 0.625469C1.04297 0.280479 1.32296 0.000488281 1.66795 0.000488281H11.0427C12.3068 0.000488281 13.3341 1.028 13.3341 2.29214V6.04202C13.3341 6.38701 13.0542 6.667 12.7092 6.667ZM11.0427 17.4999H7.70932C7.36433 17.4999 7.08434 17.2199 7.08434 16.875C7.08434 16.53 7.36433 16.25 7.70932 16.25H11.0427C11.6169 16.25 12.0842 15.7825 12.0842 15.2083V11.4584C12.0842 11.1134 12.3642 10.8334 12.7092 10.8334C13.0542 10.8334 13.3341 11.1134 13.3341 11.4584V15.2083C13.3341 16.4724 12.3068 17.4999 11.0427 17.4999Z" fill="#707070"/>
</g>
<defs>
<clipPath id="clip0_2200_10739">
<rect width="20" height="20" fill="white"/>
</clipPath>
</defs>
</svg>
