<svg width="32" height="32" viewBox="0 0 32 32" fill="none" xmlns="http://www.w3.org/2000/svg">
<path d="M29.6625 12.2374C29.5592 11.9096 29.3603 11.6201 29.0912 11.4063C28.8221 11.1924 28.4952 11.064 28.1525 11.0374L20.72 10.3949C20.675 10.3905 20.6321 10.374 20.5958 10.3472C20.5595 10.3203 20.5311 10.2841 20.5137 10.2424L17.61 3.32244C17.4755 3.00676 17.2512 2.73758 16.9649 2.54838C16.6787 2.35918 16.3431 2.2583 16 2.2583C15.6568 2.2583 15.3213 2.35918 15.035 2.54838C14.7488 2.73758 14.5244 3.00676 14.39 3.32244L11.4862 10.2424C11.4688 10.2841 11.4404 10.3203 11.4041 10.3472C11.3678 10.374 11.3249 10.3905 11.28 10.3949L3.84746 11.0374C3.50476 11.064 3.17784 11.1924 2.90875 11.4063C2.63966 11.6201 2.44069 11.9096 2.33746 12.2374C2.22812 12.5658 2.21857 12.9191 2.31001 13.2528C2.40146 13.5866 2.58979 13.8857 2.85121 14.1124L8.48996 19.0312C8.52448 19.0619 8.55013 19.1012 8.5642 19.1452C8.57828 19.1892 8.58027 19.2362 8.56996 19.2812L6.87496 26.5949C6.79594 26.9317 6.81849 27.2843 6.93974 27.6082C7.06099 27.9321 7.27551 28.2129 7.55621 28.4149C7.83255 28.6188 8.16367 28.7352 8.50682 28.749C8.84996 28.7628 9.18937 28.6735 9.48121 28.4924L15.87 24.6174C15.9075 24.5942 15.9508 24.5819 15.995 24.5819C16.0391 24.5819 16.0824 24.5942 16.12 24.6174L22.5087 28.4924C22.8036 28.673 23.1453 28.7621 23.4908 28.7486C23.8363 28.7351 24.17 28.6196 24.4499 28.4166C24.7298 28.2136 24.9433 27.9322 25.0634 27.608C25.1836 27.2838 25.205 26.9313 25.125 26.5949L23.435 19.2787C23.4246 19.2337 23.4266 19.1867 23.4407 19.1427C23.4548 19.0988 23.4804 19.0594 23.515 19.0287L29.1537 14.1099C29.4138 13.8828 29.6008 13.5839 29.6914 13.2507C29.7819 12.9175 29.7718 12.5649 29.6625 12.2374ZM28.1625 12.9774L22.5237 17.8962C22.2834 18.1052 22.1048 18.3759 22.007 18.679C21.9092 18.9821 21.8959 19.3061 21.9687 19.6162L23.6587 26.9324C23.6712 26.9816 23.6684 27.0334 23.6508 27.081C23.6332 27.1285 23.6015 27.1696 23.56 27.1987C23.5224 27.2288 23.4762 27.2461 23.4281 27.2481C23.3799 27.2502 23.3324 27.2368 23.2925 27.2099L16.9037 23.3349C16.6313 23.1694 16.3187 23.0818 16 23.0818C15.6812 23.0818 15.3686 23.1694 15.0962 23.3349L8.70746 27.2099C8.66748 27.2368 8.61997 27.2502 8.57186 27.2481C8.52375 27.2461 8.47754 27.2288 8.43996 27.1987C8.39843 27.1696 8.36675 27.1285 8.34911 27.081C8.33147 27.0334 8.32872 26.9816 8.34121 26.9324L10.0312 19.6162C10.104 19.3061 10.0907 18.9821 9.99293 18.679C9.89513 18.3759 9.71647 18.1052 9.47621 17.8962L3.83746 12.9774C3.79889 12.9446 3.77119 12.9009 3.75803 12.852C3.74486 12.8032 3.74684 12.7514 3.76371 12.7037C3.77633 12.6562 3.8037 12.6139 3.84188 12.5829C3.88007 12.5519 3.9271 12.5338 3.97621 12.5312L11.41 11.8887C11.7282 11.8616 12.033 11.7479 12.2912 11.5599C12.5494 11.372 12.7513 11.1169 12.875 10.8224L15.7787 3.90244C15.7989 3.85949 15.8309 3.82318 15.871 3.79774C15.911 3.7723 15.9575 3.7588 16.005 3.7588C16.0524 3.7588 16.0989 3.7723 16.139 3.79774C16.179 3.82318 16.211 3.85949 16.2312 3.90244L19.125 10.8224C19.2482 11.1162 19.4493 11.3708 19.7066 11.5587C19.9639 11.7466 20.2676 11.8607 20.585 11.8887L28.0187 12.5312C28.0678 12.5338 28.1148 12.5519 28.153 12.5829C28.1912 12.6139 28.2186 12.6562 28.2312 12.7037C28.2487 12.7509 28.2514 12.8024 28.2392 12.8512C28.2269 12.9 28.2002 12.944 28.1625 12.9774Z" fill="#222222"/>
</svg>
