<svg width="24" height="24" viewBox="0 0 24 24" fill="none" xmlns="http://www.w3.org/2000/svg">
<path d="M8.30762 11.077H5.07682C4.69218 11.077 4.36518 10.9424 4.09592 10.6732C3.82681 10.4039 3.69208 10.077 3.69208 9.69228V9.23096C3.69208 8.21166 4.05272 7.34155 4.77396 6.62031C5.49515 5.89932 6.36542 5.53867 7.38461 5.53867H8.30762C8.55758 5.53867 8.77385 5.44729 8.95662 5.26467C9.13929 5.08194 9.23063 4.86568 9.23063 4.61567V2.76935C9.23063 2.51939 9.13924 2.30292 8.95662 2.1202C8.7739 1.93773 8.55763 1.84619 8.30762 1.84619H7.38461C6.38451 1.84619 5.43039 2.04109 4.52163 2.43033C3.61297 2.81982 2.82702 3.34631 2.16347 4.00986C1.49997 4.67311 0.973626 5.45911 0.584185 6.36787C0.194745 7.27653 0 8.23091 0 9.2309V19.3845C0 20.1541 0.269107 20.8076 0.807574 21.3463C1.34609 21.8847 2.00009 22.1538 2.76927 22.1538H8.30797C9.0771 22.1538 9.7309 21.8847 10.2695 21.3463C10.8078 20.8076 11.0771 20.1541 11.0771 19.3845V13.8463C11.0771 13.0768 10.8078 12.4233 10.2691 11.8846C9.7308 11.3463 9.07675 11.077 8.30762 11.077ZM23.1928 11.8846C22.6545 11.3463 22.0006 11.077 21.2313 11.077H18.0005C17.6161 11.077 17.2888 10.9424 17.02 10.6732C16.7506 10.4039 16.6161 10.077 16.6161 9.69228V9.23096C16.6161 8.21166 16.9768 7.34155 17.6977 6.62031C18.4186 5.89932 19.2888 5.53867 20.3085 5.53867H21.2313C21.4813 5.53867 21.6978 5.44729 21.8804 5.26467C22.0629 5.08194 22.1546 4.86568 22.1546 4.61567V2.76935C22.1546 2.51939 22.063 2.30292 21.8804 2.1202C21.6978 1.93773 21.4814 1.84619 21.2313 1.84619H20.3085C19.3079 1.84619 18.354 2.04109 17.4449 2.43033C16.5364 2.81982 15.7507 3.34631 15.0872 4.00986C14.4236 4.67311 13.897 5.45911 13.5077 6.36787C13.1184 7.27653 12.9234 8.23091 12.9234 9.2309V19.3845C12.9234 20.1541 13.1928 20.8076 13.7311 21.3463C14.2695 21.8847 14.9233 22.1538 15.6926 22.1538H21.231C22.0003 22.1538 22.6541 21.8847 23.1924 21.3463C23.7311 20.8076 24 20.1541 24 19.3845V13.8463C24 13.0768 23.7311 12.4233 23.1928 11.8846Z" fill="#FFDC00"/>
</svg>
