<svg width="20" height="20" viewBox="0 0 20 20" fill="none" xmlns="http://www.w3.org/2000/svg">
<path d="M15.8578 2.62037H14.0484V1.81092C14.0484 1.54903 13.7627 1.43001 13.5008 1.43001H12.0962C11.7629 0.477696 10.9296 0.00154151 9.97732 0.00154151C9.03549 -0.0338659 8.17883 0.543635 7.85843 1.43001H6.47759C6.2157 1.43001 5.95381 1.54903 5.95381 1.81092V2.62037H4.14439C3.07214 2.63181 2.19493 3.47767 2.14453 4.54878V18.1906C2.14453 19.2381 3.09684 19.9999 4.14439 19.9999H15.8578C16.9053 19.9999 17.8576 19.2381 17.8576 18.1906V4.54882C17.8072 3.47767 16.93 2.63181 15.8578 2.62037ZM6.90608 2.38231H8.21551C8.32686 2.36873 8.43091 2.31976 8.51234 2.24262C8.59377 2.16547 8.64829 2.06423 8.66788 1.95378C8.80887 1.33978 9.34755 0.899031 9.97732 0.882444C10.6013 0.901355 11.1318 1.34347 11.2629 1.95378C11.2837 2.06783 11.3417 2.17178 11.4278 2.24933C11.514 2.32688 11.6235 2.37365 11.7391 2.38231H13.0961V4.28693H6.90608V2.38231ZM16.9053 18.1906C16.9053 18.7144 16.3815 19.0477 15.8578 19.0477H4.14439C3.62062 19.0477 3.09684 18.7144 3.09684 18.1906V4.54882C3.14542 4.00363 3.5971 3.5827 4.14439 3.57272H5.95377V4.78692C5.97892 5.05368 6.20996 5.25323 6.47754 5.23929H13.5008C13.6322 5.24648 13.7615 5.20393 13.863 5.1201C13.9644 5.03628 14.0306 4.91733 14.0484 4.78692V3.57268H15.8577C16.405 3.5827 16.8567 4.00358 16.9053 4.54878V18.1906H16.9053Z" fill="#707070"/>
<path d="M8.16934 10.6435C7.99076 10.4552 7.69428 10.4446 7.50271 10.6197L5.97901 12.0719L5.3362 11.4053C5.15762 11.2171 4.86114 11.2065 4.66957 11.3815C4.58079 11.4745 4.53125 11.5982 4.53125 11.7267C4.53125 11.8553 4.58079 11.9789 4.66957 12.0719L5.64567 13.0719C5.6874 13.1186 5.73887 13.1556 5.79646 13.1803C5.85404 13.205 5.91634 13.2167 5.97896 13.2147C6.10456 13.2129 6.22436 13.1616 6.31225 13.0719L8.16925 11.3101C8.35335 11.1412 8.36566 10.8551 8.19673 10.671C8.18805 10.6614 8.17891 10.6522 8.16934 10.6435ZM15.0022 11.6672H9.5264C9.26342 11.6672 9.05025 11.8804 9.05025 12.1433C9.05025 12.4063 9.26342 12.6195 9.5264 12.6195H15.0022C15.2651 12.6195 15.4783 12.4063 15.4783 12.1433C15.4783 11.8804 15.2651 11.6672 15.0022 11.6672ZM8.16934 6.83424C7.99076 6.64599 7.69428 6.63537 7.50271 6.81045L5.97901 8.2627L5.3362 7.59607C5.15762 7.40782 4.86114 7.3972 4.66957 7.57228C4.58079 7.66528 4.53125 7.78891 4.53125 7.91749C4.53125 8.04607 4.58079 8.1697 4.66957 8.2627L5.64567 9.26263C5.6874 9.30936 5.73887 9.34637 5.79646 9.37106C5.85404 9.39574 5.91634 9.40749 5.97896 9.40549C6.10456 9.40371 6.22436 9.35236 6.31225 9.26263L8.16925 7.50087C8.35335 7.33199 8.36566 7.04582 8.19673 6.86176C8.18805 6.85215 8.17891 6.84296 8.16934 6.83424ZM15.0022 7.85795H9.5264C9.26342 7.85795 9.05025 8.07113 9.05025 8.33411C9.05025 8.59709 9.26342 8.81026 9.5264 8.81026H15.0022C15.2651 8.81026 15.4783 8.59709 15.4783 8.33411C15.4783 8.07113 15.2651 7.85795 15.0022 7.85795ZM8.16934 14.4527C7.99076 14.2644 7.69428 14.2538 7.50271 14.4289L5.97901 15.8811L5.3362 15.2145C5.15762 15.0262 4.86114 15.0157 4.66957 15.1907C4.58079 15.2837 4.53125 15.4073 4.53125 15.5359C4.53125 15.6645 4.58079 15.7881 4.66957 15.8811L5.64567 16.8811C5.6874 16.9278 5.73887 16.9648 5.79646 16.9895C5.85404 17.0142 5.91634 17.0259 5.97896 17.0239C6.10456 17.0221 6.22436 16.9708 6.31225 16.8811L8.16925 15.1193C8.35335 14.9504 8.36566 14.6642 8.19673 14.4802C8.18803 14.4706 8.17889 14.4614 8.16934 14.4527ZM15.0022 15.4764H9.5264C9.26342 15.4764 9.05025 15.6896 9.05025 15.9526C9.05025 16.2156 9.26342 16.4287 9.5264 16.4287H15.0022C15.2651 16.4287 15.4783 16.2156 15.4783 15.9526C15.4783 15.6896 15.2651 15.4764 15.0022 15.4764Z" fill="#707070"/>
</svg>
