<svg width="20" height="20" viewBox="0 0 20 20" fill="none" xmlns="http://www.w3.org/2000/svg">
<path d="M6.66671 18.3337C7.12694 18.3337 7.50004 17.9606 7.50004 17.5003C7.50004 17.0401 7.12694 16.667 6.66671 16.667C6.20647 16.667 5.83337 17.0401 5.83337 17.5003C5.83337 17.9606 6.20647 18.3337 6.66671 18.3337Z" stroke="#707070" stroke-width="1.25" stroke-linecap="round" stroke-linejoin="round"/>
<path d="M15.8333 18.3337C16.2936 18.3337 16.6667 17.9606 16.6667 17.5003C16.6667 17.0401 16.2936 16.667 15.8333 16.667C15.3731 16.667 15 17.0401 15 17.5003C15 17.9606 15.3731 18.3337 15.8333 18.3337Z" stroke="#707070" stroke-width="1.25" stroke-linecap="round" stroke-linejoin="round"/>
<path d="M1.70837 1.70801H3.37504L5.59171 12.058C5.67302 12.4371 5.88393 12.7759 6.18813 13.0162C6.49233 13.2565 6.8708 13.3833 7.25837 13.3747H15.4084C15.7877 13.3741 16.1554 13.2441 16.4509 13.0062C16.7463 12.7683 16.9518 12.4368 17.0334 12.0663L18.4084 5.87467H4.26671" stroke="#707070" stroke-width="1.25" stroke-linecap="round" stroke-linejoin="round"/>
</svg>
