<svg width="15" height="15" viewBox="0 0 15 15" fill="none" xmlns="http://www.w3.org/2000/svg">
<path d="M13.325 15H9.925C9 15 8.25 14.25 8.25 13.325V8.75C8.25 8.475 8.475 8.25 8.75 8.25H13.325C14.25 8.25 15 9 15 9.925V13.325C15 14.25 14.25 15 13.325 15ZM9.25 9.25V13.325C9.25 13.7 9.55 14 9.925 14H13.325C13.7 14 14 13.7 14 13.325V9.925C14 9.55 13.7 9.25 13.325 9.25H9.25ZM5.075 15H1.675C0.75 15 0 14.25 0 13.325V9.925C0 9 0.75 8.25 1.675 8.25H6.25C6.525 8.25 6.75 8.475 6.75 8.75V13.325C6.75 14.25 6 15 5.075 15ZM1.675 9.25C1.3 9.25 1 9.55 1 9.925V13.325C1 13.7 1.3 14 1.675 14H5.075C5.45 14 5.75 13.7 5.75 13.325V9.25H1.675ZM13.325 6.75H8.75C8.475 6.75 8.25 6.525 8.25 6.25V1.675C8.25 0.75 9 0 9.925 0H13.325C14.25 0 15 0.75 15 1.675V5.075C15 6 14.25 6.75 13.325 6.75ZM9.25 5.75H13.325C13.7 5.75 14 5.45 14 5.075V1.675C14 1.3 13.7 1 13.325 1H9.925C9.55 1 9.25 1.3 9.25 1.675V5.75ZM6.25 6.75H1.675C0.75 6.75 0 6 0 5.075V1.675C0 0.75 0.75 0 1.675 0H5.075C6 0 6.75 0.75 6.75 1.675V6.25C6.75 6.525 6.525 6.75 6.25 6.75ZM1.675 1C1.3 1 1 1.3 1 1.675V5.075C1 5.45 1.3 5.75 1.675 5.75H5.75V1.675C5.75 1.3 5.45 1 5.075 1H1.675Z" fill="#171E2F"/>
</svg>
