<svg width="24" height="24" viewBox="0 0 24 24" fill="none" xmlns="http://www.w3.org/2000/svg">
<g clip-path="url(#clip0_2012_3992)">
<path d="M19.0262 3.14444H16.855V2.1731C16.855 1.85884 16.5121 1.71601 16.1979 1.71601H14.5123C14.1124 0.573235 13.1124 0.00184981 11.9697 0.00184981C10.8395 -0.0406391 9.81147 0.652362 9.42699 1.71601H7.76998C7.45572 1.71601 7.14145 1.85884 7.14145 2.1731V3.14444H4.97014C3.68345 3.15817 2.63079 4.1732 2.57031 5.45853V21.8287C2.57031 23.0857 3.71308 23.9999 4.97014 23.9999H19.0262C20.2833 23.9999 21.426 23.0857 21.426 21.8287V5.45858C21.3656 4.1732 20.3129 3.15817 19.0262 3.14444ZM8.28417 2.85878H9.85549C9.98911 2.84247 10.114 2.78371 10.2117 2.69114C10.3094 2.59857 10.3748 2.47707 10.3983 2.34454C10.5675 1.60773 11.2139 1.07884 11.9697 1.05893C12.7184 1.08163 13.3551 1.61216 13.5124 2.34454C13.5373 2.4814 13.6069 2.60613 13.7103 2.69919C13.8137 2.79225 13.945 2.84838 14.0838 2.85878H15.7122V5.14432H8.28417V2.85878ZM20.2833 21.8287C20.2833 22.4573 19.6547 22.8572 19.0262 22.8572H4.97014C4.34161 22.8572 3.71308 22.4573 3.71308 21.8287V5.45858C3.77138 4.80435 4.3134 4.29924 4.97014 4.28727H7.1414V5.7443C7.17158 6.06442 7.44883 6.30388 7.76993 6.28715H16.1978C16.3555 6.29577 16.5107 6.24471 16.6324 6.14412C16.7542 6.04354 16.8336 5.9008 16.8549 5.7443V4.28721H19.0262C19.6828 4.29924 20.2249 4.8043 20.2832 5.45853V21.8287H20.2833Z" fill="#222222"/>
<path d="M9.79931 12.7723C9.585 12.5464 9.22923 12.5337 8.99935 12.7437L7.1709 14.4864L6.39954 13.6865C6.18523 13.4606 5.82946 13.4479 5.59958 13.6579C5.49304 13.7695 5.43359 13.9179 5.43359 14.0722C5.43359 14.2265 5.49304 14.3748 5.59958 14.4864L6.77089 15.6864C6.82097 15.7424 6.88274 15.7869 6.95184 15.8165C7.02094 15.8461 7.0957 15.8602 7.17085 15.8578C7.32156 15.8557 7.46532 15.794 7.5708 15.6864L9.7992 13.5723C10.0201 13.3696 10.0349 13.0262 9.83217 12.8053C9.82176 12.7938 9.81079 12.7828 9.79931 12.7723ZM17.9987 14.0008H11.4278C11.1122 14.0008 10.8564 14.2566 10.8564 14.5721C10.8564 14.8877 11.1122 15.1435 11.4278 15.1435H17.9987C18.3143 15.1435 18.5701 14.8877 18.5701 14.5721C18.5701 14.2566 18.3143 14.0008 17.9987 14.0008ZM9.79931 8.20121C9.585 7.97531 9.22923 7.96257 8.99935 8.17266L7.1709 9.91536L6.39954 9.1154C6.18523 8.8895 5.82946 8.87676 5.59958 9.08686C5.49304 9.19846 5.43359 9.34682 5.43359 9.50111C5.43359 9.6554 5.49304 9.80376 5.59958 9.91536L6.77089 11.1153C6.82097 11.1714 6.88274 11.2158 6.95184 11.2454C7.02094 11.275 7.0957 11.2891 7.17085 11.2867C7.32156 11.2846 7.46532 11.223 7.5708 11.1153L9.7992 9.00117C10.0201 8.79851 10.0349 8.4551 9.83217 8.23423C9.82176 8.2227 9.81079 8.21168 9.79931 8.20121ZM17.9987 9.42967H11.4278C11.1122 9.42967 10.8564 9.68547 10.8564 10.0011C10.8564 10.3166 11.1122 10.5724 11.4278 10.5724H17.9987C18.3143 10.5724 18.5701 10.3166 18.5701 10.0011C18.5701 9.68547 18.3143 9.42967 17.9987 9.42967ZM9.79931 17.3433C9.585 17.1174 9.22923 17.1047 8.99935 17.3148L7.1709 19.0575L6.39954 18.2575C6.18523 18.0316 5.82946 18.0189 5.59958 18.229C5.49304 18.3406 5.43359 18.4889 5.43359 18.6432C5.43359 18.7975 5.49304 18.9459 5.59958 19.0575L6.77089 20.2574C6.82097 20.3135 6.88274 20.3579 6.95184 20.3875C7.02094 20.4171 7.0957 20.4312 7.17085 20.4288C7.32156 20.4267 7.46532 20.3651 7.5708 20.2574L9.7992 18.1433C10.0201 17.9406 10.0349 17.5972 9.83217 17.3764C9.82173 17.3648 9.81076 17.3538 9.79931 17.3433ZM17.9987 18.5718H11.4278C11.1122 18.5718 10.8564 18.8276 10.8564 19.1432C10.8564 19.4588 11.1122 19.7146 11.4278 19.7146H17.9987C18.3143 19.7146 18.5701 19.4588 18.5701 19.1432C18.5701 18.8276 18.3143 18.5718 17.9987 18.5718Z" fill="#222222"/>
</g>
<defs>
<clipPath id="clip0_2012_3992">
<rect width="24" height="24" fill="white"/>
</clipPath>
</defs>
</svg>
