<svg width="32" height="32" viewBox="0 0 32 32" fill="none" xmlns="http://www.w3.org/2000/svg">
<path d="M5.46997 12.53L15.47 22.53C15.6106 22.6704 15.8012 22.7493 16 22.7493C16.1987 22.7493 16.3893 22.6704 16.53 22.53L26.53 12.53C26.6625 12.3878 26.7346 12.1997 26.7311 12.0054C26.7277 11.8111 26.649 11.6258 26.5116 11.4883C26.3742 11.3509 26.1888 11.2722 25.9945 11.2688C25.8002 11.2654 25.6121 11.3375 25.47 11.47L16 20.9387L6.52997 11.47C6.38779 11.3375 6.19975 11.2654 6.00545 11.2688C5.81115 11.2722 5.62576 11.3509 5.48835 11.4883C5.35093 11.6258 5.27222 11.8111 5.2688 12.0054C5.26537 12.1997 5.33749 12.3878 5.46997 12.53Z" fill="#222222"/>
</svg>
