<svg width="24" height="24" viewBox="0 0 24 24" fill="none" xmlns="http://www.w3.org/2000/svg">
<g clip-path="url(#clip0_2012_4006)">
<path d="M23.2497 11.2504H13.75C13.336 11.2504 13 10.9145 13 10.5005C13 10.0865 13.336 9.75049 13.75 9.75049H23.2497C23.6637 9.75049 23.9997 10.0865 23.9997 10.5005C23.9997 10.9145 23.6637 11.2504 23.2497 11.2504Z" fill="#222222"/>
<path d="M19.4994 15.0003C19.4009 15.0005 19.3033 14.9812 19.2123 14.9434C19.1213 14.9057 19.0387 14.8502 18.9693 14.7803C18.6763 14.4872 18.6763 14.0123 18.9693 13.7193L22.1893 10.4995L18.9693 7.27949C18.6763 6.98653 18.6763 6.51156 18.9693 6.2186C19.2624 5.92545 19.7374 5.92545 20.0304 6.2186L23.7803 9.96848C24.0732 10.2614 24.0732 10.7364 23.7803 11.0294L20.0304 14.7793C19.9609 14.8494 19.8782 14.9051 19.7871 14.9431C19.6959 14.981 19.5981 15.0004 19.4994 15.0003ZM7.99981 24C7.78579 24 7.58273 23.97 7.37982 23.9069L1.36191 21.902C0.54303 21.616 0 20.853 0 20.0002V2.00073C0 0.897751 0.897019 0.000732422 2 0.000732422C2.21384 0.000732422 2.41694 0.0307315 2.62 0.0937295L8.63771 2.0987C9.45674 2.38467 9.99963 3.14768 9.99963 4.00054V22C9.99963 23.103 9.10279 24 7.99981 24ZM2 1.50069C1.72499 1.50069 1.49995 1.72568 1.49995 2.00073V20.0002C1.49995 20.2131 1.64292 20.411 1.84691 20.4821L7.83665 22.478C7.87968 22.492 7.93574 22.5 7.99981 22.5C8.27482 22.5 8.49967 22.275 8.49967 22V4.00054C8.49967 3.7876 8.35671 3.58965 8.15271 3.51864L2.16298 1.52267C2.11995 1.50875 2.06389 1.50069 2 1.50069Z" fill="#222222"/>
<path d="M15.2494 8.00055C14.8355 8.00055 14.4995 7.66456 14.4995 7.25057V2.75071C14.4995 2.06167 13.9386 1.50069 13.2496 1.50069H1.99998C1.58599 1.50069 1.25 1.1647 1.25 0.750709C1.25 0.336722 1.58599 0.000732422 1.99998 0.000732422H13.2496C14.7666 0.000732422 15.9994 1.23374 15.9994 2.75071V7.25057C15.9994 7.66456 15.6634 8.00055 15.2494 8.00055ZM13.2496 21.0001H9.24963C8.83564 21.0001 8.49965 20.6641 8.49965 20.2501C8.49965 19.8361 8.83564 19.5001 9.24963 19.5001H13.2496C13.9387 19.5001 14.4995 18.9391 14.4995 18.2501V13.7502C14.4995 13.3363 14.8355 13.0003 15.2494 13.0003C15.6634 13.0003 15.9994 13.3363 15.9994 13.7502V18.2501C15.9994 19.7671 14.7666 21.0001 13.2496 21.0001Z" fill="#222222"/>
</g>
<defs>
<clipPath id="clip0_2012_4006">
<rect width="24" height="24" fill="white"/>
</clipPath>
</defs>
</svg>
