<svg width="32" height="32" viewBox="0 0 32 32" fill="none" xmlns="http://www.w3.org/2000/svg">
<path d="M29.6607 12.2374C29.5575 11.9096 29.3586 11.6201 29.0895 11.4063C28.8204 11.1924 28.4934 11.064 28.1507 11.0374L20.7182 10.3949C20.6733 10.3905 20.6304 10.374 20.5941 10.3472C20.5578 10.3203 20.5294 10.2841 20.512 10.2424L17.6082 3.32244C17.4738 3.00676 17.2495 2.73758 16.9632 2.54838C16.6769 2.35918 16.3414 2.2583 15.9982 2.2583C15.6551 2.2583 15.3196 2.35918 15.0333 2.54838C14.747 2.73758 14.5227 3.00676 14.3882 3.32244L11.4845 10.2424C11.4671 10.2841 11.4387 10.3203 11.4024 10.3472C11.3661 10.374 11.3232 10.3905 11.2782 10.3949L3.84575 11.0374C3.50305 11.064 3.17614 11.1924 2.90704 11.4063C2.63795 11.6201 2.43899 11.9096 2.33575 12.2374C2.22641 12.5658 2.21686 12.9191 2.3083 13.2528C2.39975 13.5866 2.58808 13.8857 2.8495 14.1124L8.48825 19.0312C8.52278 19.0619 8.54842 19.1012 8.56249 19.1452C8.57657 19.1892 8.57856 19.2362 8.56825 19.2812L6.87325 26.5949C6.79424 26.9317 6.81678 27.2843 6.93803 27.6082C7.05928 27.9321 7.2738 28.2129 7.5545 28.4149C7.83084 28.6188 8.16196 28.7352 8.50511 28.749C8.84825 28.7628 9.18766 28.6735 9.4795 28.4924L15.8682 24.6174C15.9058 24.5942 15.9491 24.5819 15.9932 24.5819C16.0374 24.5819 16.0807 24.5942 16.1182 24.6174L22.507 28.4924C22.8019 28.673 23.1436 28.7621 23.4891 28.7486C23.8346 28.7351 24.1683 28.6196 24.4482 28.4166C24.7281 28.2136 24.9416 27.9322 25.0617 27.608C25.1819 27.2838 25.2033 26.9313 25.1232 26.5949L23.4332 19.2787C23.4229 19.2337 23.4249 19.1867 23.439 19.1427C23.4531 19.0988 23.4787 19.0594 23.5132 19.0287L29.152 14.1099C29.4121 13.8828 29.5991 13.5839 29.6897 13.2507C29.7802 12.9175 29.7701 12.5649 29.6607 12.2374ZM28.1607 12.9774L22.522 17.8962C22.2817 18.1052 22.1031 18.3759 22.0053 18.679C21.9075 18.9821 21.8942 19.3061 21.967 19.6162L23.657 26.9324C23.6695 26.9816 23.6667 27.0334 23.6491 27.081C23.6315 27.1285 23.5998 27.1696 23.5582 27.1987C23.5207 27.2288 23.4745 27.2461 23.4263 27.2481C23.3782 27.2502 23.3307 27.2368 23.2907 27.2099L16.902 23.3349C16.6296 23.1694 16.317 23.0818 15.9982 23.0818C15.6795 23.0818 15.3669 23.1694 15.0945 23.3349L8.70575 27.2099C8.66577 27.2368 8.61827 27.2502 8.57016 27.2481C8.52205 27.2461 8.47584 27.2288 8.43825 27.1987C8.39672 27.1696 8.36504 27.1285 8.3474 27.081C8.32976 27.0334 8.32701 26.9816 8.3395 26.9324L10.0295 19.6162C10.1023 19.3061 10.089 18.9821 9.99122 18.679C9.89342 18.3759 9.71476 18.1052 9.4745 17.8962L3.83575 12.9774C3.79718 12.9446 3.76949 12.9009 3.75632 12.852C3.74315 12.8032 3.74513 12.7514 3.762 12.7037C3.77462 12.6562 3.80199 12.6139 3.84018 12.5829C3.87836 12.5519 3.92539 12.5338 3.9745 12.5312L11.4082 11.8887C11.7265 11.8616 12.0312 11.7479 12.2895 11.5599C12.5477 11.372 12.7496 11.1169 12.8732 10.8224L15.777 3.90244C15.7972 3.85949 15.8292 3.82318 15.8692 3.79774C15.9093 3.7723 15.9558 3.7588 16.0032 3.7588C16.0507 3.7588 16.0972 3.7723 16.1372 3.79774C16.1773 3.82318 16.2093 3.85949 16.2295 3.90244L19.1232 10.8224C19.2465 11.1162 19.4476 11.3708 19.7049 11.5587C19.9622 11.7466 20.2659 11.8607 20.5832 11.8887L28.017 12.5312C28.0661 12.5338 28.1131 12.5519 28.1513 12.5829C28.1895 12.6139 28.2169 12.6562 28.2295 12.7037C28.2469 12.7509 28.2497 12.8024 28.2375 12.8512C28.2252 12.9 28.1985 12.944 28.1607 12.9774Z" fill="#222222"/>
</svg>
