<svg width="206" height="80" viewBox="0 0 206 80" fill="none" xmlns="http://www.w3.org/2000/svg">
<path d="M196.99 65.2559H0.136475V79.9999H196.99V65.2559Z" fill="#F2F2F2"/>
<path d="M109.758 68.9419H110.577L113.58 76.7235H112.761L111.942 74.4026H108.392L107.437 76.86H106.618L109.758 68.9419ZM108.665 73.7201H111.805L110.304 69.761L108.665 73.7201Z" fill="#707070"/>
<path d="M114.399 68.9419H115.218L119.723 75.4948V68.9419H120.406V76.7235H119.586L115.081 70.1706V76.7235H114.399V68.9419Z" fill="#707070"/>
<path d="M124.911 68.9419H130.781V70.4436H126.685V72.0818H130.508V73.447H126.685V75.3583H130.917V76.86H125.047L124.911 68.9419Z" fill="#707070"/>
<path d="M132.965 74.1296C132.965 75.2218 133.784 75.6313 134.74 75.6313C135.286 75.6313 136.241 75.4948 136.241 74.6757C136.241 73.8566 135.013 73.7201 133.92 73.447C132.692 73.174 131.6 72.6279 131.6 71.2627C131.6 69.6245 133.101 68.9419 134.467 68.9419C136.105 68.9419 137.606 69.6245 137.606 71.3992H135.968C135.968 70.4436 135.286 70.1706 134.467 70.1706C133.92 70.1706 133.238 70.4436 133.238 70.9897C133.238 71.5358 133.647 71.6723 135.559 72.2183C136.105 72.3549 137.879 72.7644 137.879 74.5392C137.879 76.0409 136.787 76.9965 134.603 76.9965C132.828 76.9965 131.19 76.1774 131.327 74.2661L132.965 74.1296Z" fill="#707070"/>
<path d="M140.746 68.9419H142.521L145.388 76.7235H143.613L143.067 74.9487H140.2L139.654 76.7235H137.879L140.746 68.9419ZM140.61 73.7201H142.657L141.702 70.8532L140.61 73.7201Z" fill="#707070"/>
<path d="M146.207 68.9419H149.893C151.394 68.9419 152.35 69.488 152.35 70.8532C152.35 71.6723 151.94 72.2183 151.258 72.4914C152.213 72.7644 152.759 73.447 152.759 74.5392C152.759 76.1774 151.394 76.86 150.029 76.86H146.207V68.9419ZM147.845 72.0818H149.62C150.166 72.0818 150.712 71.8088 150.712 71.1262C150.712 70.4436 150.166 70.1706 149.483 70.1706H147.845V72.0818ZM147.845 75.4948H149.62C150.302 75.4948 150.848 75.2218 150.848 74.4026C150.848 73.5835 150.302 73.3105 149.62 73.3105H147.708L147.845 75.4948Z" fill="#707070"/>
<path d="M159.039 68.9419H162.315C163.681 68.9419 164.773 69.3515 164.773 70.8532C164.773 71.6723 164.227 72.4914 163.408 72.6279C164.363 72.7644 165.046 73.447 165.046 74.5392C165.046 75.2218 164.773 76.7235 162.179 76.7235H158.903L159.039 68.9419ZM159.858 72.3549H162.452C163.681 72.3549 164.227 71.8088 164.227 70.9897C164.227 70.034 163.681 69.488 162.452 69.488H159.858V72.3549ZM159.858 76.1774H162.452C163.544 76.1774 164.5 75.7678 164.5 74.5392C164.5 73.5835 163.681 73.0375 162.452 73.0375H159.858V76.1774Z" fill="#707070"/>
<path d="M165.728 68.9419H169.278C170.506 68.9419 171.598 69.6245 171.598 70.9897C171.598 71.9453 171.052 72.7644 170.097 73.0375C171.052 73.174 171.462 73.8566 171.462 74.8122C171.462 75.3583 171.462 76.4504 171.871 76.86H171.052C170.916 76.5869 170.916 76.0409 170.779 75.6313C170.779 74.5392 170.643 73.3105 169.278 73.3105H166.547V76.7235H165.865L165.728 68.9419ZM166.547 72.6279H169.278C170.233 72.6279 170.916 72.0818 170.916 71.1262C170.916 70.1706 170.37 69.6245 169.278 69.6245H166.547V72.6279Z" fill="#707070"/>
<path d="M175.557 68.9419H176.376L179.38 76.7235H178.561L177.605 74.2661H174.056L173.1 76.7235H172.281L175.557 68.9419ZM174.329 73.7201H177.469L175.967 69.761L174.329 73.7201Z" fill="#707070"/>
<path d="M180.199 68.9419H181.018L185.523 75.4948V68.9419H186.205V76.7235H185.386L180.881 70.1706V76.7235H180.199V68.9419Z" fill="#707070"/>
<path d="M187.161 68.9419H189.891C192.212 68.9419 193.441 70.3071 193.441 72.9009C193.441 75.4948 192.212 76.7235 189.891 76.86H187.161V68.9419ZM187.98 76.1774H189.618C191.802 76.1774 192.895 75.2218 192.895 72.9009C192.895 70.5801 191.939 69.6245 189.618 69.6245H187.98V76.1774Z" fill="#707070"/>
<path d="M155.899 70.3071C155.899 71.1262 155.217 71.8088 154.398 71.8088C153.579 71.8088 152.896 71.1262 152.896 70.3071C152.896 69.488 153.579 68.8054 154.398 68.8054C155.217 68.9419 155.899 69.488 155.899 70.3071ZM153.169 70.3071C153.169 70.9897 153.715 71.5358 154.398 71.5358C155.08 71.5358 155.626 70.9897 155.626 70.3071C155.626 69.6245 155.08 69.0785 154.398 69.0785C153.715 69.0785 153.169 69.6245 153.169 70.3071ZM154.125 71.2628H153.852V69.488H154.534C154.944 69.488 155.08 69.6245 155.08 69.8976C155.08 70.1706 154.944 70.3071 154.671 70.4436L155.217 71.2628H154.944L154.398 70.4436H153.988L154.125 71.2628ZM154.398 70.3071C154.671 70.3071 154.944 70.3071 154.944 70.0341C154.944 69.761 154.807 69.761 154.534 69.761H154.125V70.3071H154.398Z" fill="#707070"/>
<path d="M0.273029 57.0648L0 2.45728H12.8323L11.1942 40.6825H11.3307L26.0742 2.45728H38.9066L15.4261 57.0648H0.273029Z" fill="#707070"/>
<path d="M31.1252 57.0648L42.729 2.45728H55.5613L43.9576 57.0648H31.1252Z" fill="#707070"/>
<path d="M78.7687 21.5698L79.4513 18.0203C80.5434 13.3786 79.4513 10.9213 76.994 10.9213C73.0351 10.7848 71.5335 12.9691 70.8509 16.6551L64.9808 43.6858C64.2982 46.6892 65.1173 48.6005 68.5301 48.6005C72.8986 48.6005 74.2637 44.0954 74.9463 40.6824L76.0384 35.7677H88.8708L87.5056 42.4571C85.4579 51.8769 78.7687 58.4298 65.6633 58.4298C53.9231 58.4298 50.6468 52.15 52.9675 41.092L57.7455 18.7029C60.2028 6.82574 66.892 1.36499 78.6322 1.36499C89.5533 1.36499 95.1504 6.00663 92.6932 17.2012L91.7376 21.8428H78.7687V21.5698Z" fill="#707070"/>
<path d="M97.4712 2.45728H130.644L128.323 13.3788H117.948L108.665 57.0648H95.833L105.116 13.3788H95.0139L97.4712 2.45728Z" fill="#707070"/>
<path d="M159.858 39.5903C157.264 51.877 151.531 58.2934 138.698 58.2934C125.866 58.2934 122.453 51.877 125.047 39.5903L129.825 17.3378C132.009 6.82583 139.518 1.09204 150.712 1.09204C161.906 1.09204 166.684 6.96235 164.5 17.3378L159.858 39.5903ZM151.531 18.2934C152.213 14.8804 152.759 10.9214 148.527 10.9214C144.432 10.9214 143.067 14.8804 142.384 18.2934L137.606 40.6825C136.924 43.8224 136.514 48.4641 140.61 48.4641C144.705 48.4641 146.07 43.8224 146.753 40.6825L151.531 18.2934Z" fill="#707070"/>
<path d="M173.373 57.0648H160.541L172.144 2.45728H190.847C201.359 2.45728 205.727 6.68936 203.406 17.4743C202.178 23.3446 199.857 27.4402 193.987 29.8976V30.0341C197.4 30.8532 199.447 33.3105 198.765 37.133C198.219 41.5016 196.308 50.9214 196.308 54.3344C196.444 55.017 196.717 55.6996 197.127 56.2457L196.99 56.9283H183.066C182.929 55.9726 182.793 54.8805 183.066 53.7883C183.885 49.0102 185.113 44.5051 185.523 41.0921C185.932 37.6791 185.25 35.4948 182.383 35.3583H178.151L173.373 57.0648ZM180.062 25.6655H184.431C188.117 25.6655 189.755 22.2525 190.437 18.8395C191.803 12.4231 189.209 12.0136 182.929 12.2866L180.062 25.6655Z" fill="#707070"/>
<path d="M202.178 49.6926C204.225 49.6926 206 51.3309 206 53.5152C206 55.6995 204.225 57.3377 202.178 57.3377C200.13 57.3377 198.355 55.6995 198.355 53.5152C198.492 51.3309 200.13 49.6926 202.178 49.6926ZM202.178 56.6551C203.952 56.6551 205.317 55.2899 205.317 53.3786C205.317 51.6039 203.952 50.2387 202.178 50.2387C200.403 50.2387 199.038 51.6039 199.038 53.3786C199.174 55.2899 200.403 56.6551 202.178 56.6551ZM200.812 51.1943H202.587C203.679 51.1943 204.089 51.6039 204.089 52.423C204.089 53.2421 203.543 53.5151 202.86 53.6517L204.089 55.5629H203.406L202.178 53.6517H201.495V55.5629H200.812V51.1943ZM201.495 53.2421H202.178C202.724 53.2421 203.406 53.2421 203.406 52.5595C203.406 52.0134 202.86 51.8769 202.451 51.8769H201.495V53.2421Z" fill="#707070"/>
</svg>
