<svg width="219" height="80" viewBox="0 0 219 80" fill="none" xmlns="http://www.w3.org/2000/svg">
<path d="M210.169 65.2678H0V80H210.169V65.2678Z" fill="#F2F2F2"/>
<path d="M123.461 68.9285H124.264L127.296 76.6963H126.494L125.512 74.2856H121.944L120.963 76.6963H120.16L123.461 68.9285ZM122.301 73.6606H125.334L123.817 69.6428L122.301 73.6606Z" fill="#707070"/>
<path d="M128.099 68.9285H128.902L133.452 75.5356V68.9285H134.165V76.6963H133.362L128.813 70.0892V76.6963H128.099V68.9285Z" fill="#707070"/>
<path d="M138.536 68.9285H144.335V70.357H140.231V72.0535H143.978V73.3928H140.231V75.2678H144.424V76.6963H138.536V68.9285Z" fill="#707070"/>
<path d="M146.476 74.1071C146.476 75.1786 147.279 75.5357 148.171 75.5357C148.795 75.5357 149.687 75.3571 149.687 74.5536C149.687 73.75 148.528 73.5714 147.368 73.3036C146.208 73.0357 145.049 72.5893 145.049 71.0714C145.049 69.4643 146.565 68.75 147.992 68.75C149.598 68.75 151.115 69.4643 151.115 71.25H149.42C149.33 70.2679 148.706 70.0893 147.903 70.0893C147.368 70.0893 146.743 70.3571 146.743 70.9821C146.743 71.6071 147.1 71.6964 149.063 72.1429C149.598 72.3214 151.382 72.6786 151.382 74.375C151.382 75.8036 150.222 76.875 148.171 76.875C146.476 76.875 144.87 75.9821 144.87 74.1071H146.476Z" fill="#707070"/>
<path d="M154.326 68.9285H156.11L159.054 76.6963H157.27L156.645 74.9999H153.701L153.077 76.6963H151.382L154.326 68.9285ZM154.147 73.6606H156.199L155.218 70.8035L154.147 73.6606Z" fill="#707070"/>
<path d="M159.678 68.9285H163.336C164.852 68.9285 165.833 69.3749 165.833 70.8928C165.833 71.6963 165.477 72.1428 164.763 72.4999C165.744 72.7678 166.19 73.482 166.19 74.4642C166.19 76.0713 164.852 76.6963 163.425 76.6963H159.678V68.9285ZM161.373 72.0535H163.068C163.692 72.0535 164.139 71.7856 164.139 71.1606C164.139 70.4463 163.603 70.2678 162.979 70.2678H161.373V72.0535ZM161.373 75.357H163.246C163.96 75.357 164.495 75.1785 164.495 74.3749C164.495 73.5713 163.96 73.3035 163.246 73.3035H161.373V75.357Z" fill="#707070"/>
<path d="M172.524 68.9285H175.824C177.163 68.9285 178.322 69.3749 178.322 70.8035C178.322 71.607 177.787 72.4106 176.984 72.5892C177.965 72.7678 178.59 73.482 178.59 74.4642C178.59 75.1785 178.322 76.6963 175.824 76.6963H172.524V68.9285ZM173.237 72.3213H175.824C176.984 72.3213 177.609 71.6963 177.609 70.982C177.609 69.9999 176.984 69.5535 175.824 69.5535H173.237V72.3213ZM173.237 76.0713H175.824C176.895 76.0713 177.876 75.7142 177.876 74.4642C177.876 73.482 177.163 72.9463 175.824 72.9463H173.237V76.0713Z" fill="#707070"/>
<path d="M179.125 68.9285H182.693C183.942 68.9285 185.102 69.5535 185.102 70.982C185.102 71.9642 184.567 72.7678 183.585 72.9463C184.567 73.0356 184.923 73.7499 184.923 74.732C184.923 75.2678 184.923 76.3392 185.28 76.6963H184.477C184.299 76.4285 184.299 75.8035 184.299 75.4463C184.21 74.3749 184.121 73.1249 182.782 73.2142H180.017V76.6963H179.303V68.9285H179.125ZM179.839 72.5892H182.604C183.496 72.5892 184.299 72.0535 184.299 71.0713C184.299 70.0892 183.764 69.5535 182.604 69.5535H179.839V72.5892Z" fill="#707070"/>
<path d="M188.848 68.9285H189.651L192.684 76.6963H191.881L190.9 74.2856H187.332L186.44 76.6963H185.637L188.848 68.9285ZM187.689 73.6606H190.722L189.205 69.6428L187.689 73.6606Z" fill="#707070"/>
<path d="M193.487 68.9285H194.29L198.84 75.5356V68.9285H199.553V76.6963H198.75L194.201 70.0892V76.6963H193.487V68.9285Z" fill="#707070"/>
<path d="M200.445 68.9285H203.121C205.441 69.0178 206.69 70.2678 206.69 72.857C206.69 75.4463 205.441 76.6963 203.121 76.7856H200.445V68.9285ZM201.248 76.0713H202.854C205.084 76.0713 206.065 75.1785 206.065 72.857C206.065 70.5356 205.084 69.5535 202.854 69.6428H201.248V76.0713Z" fill="#707070"/>
<path d="M169.312 70.3572C169.312 71.1608 168.688 71.8751 167.796 71.8751C166.993 71.8751 166.279 71.2501 166.279 70.3572C166.279 69.5536 166.904 68.8394 167.796 68.8394C168.688 68.8394 169.312 69.4644 169.312 70.3572ZM166.636 70.3572C166.636 71.0715 167.171 71.6072 167.885 71.6072C168.599 71.6072 169.134 71.0715 169.134 70.3572C169.134 69.6429 168.599 69.1072 167.885 69.1072C167.171 69.0179 166.636 69.6429 166.636 70.3572ZM167.528 71.1608H167.35V69.4644H167.974C168.331 69.4644 168.51 69.6429 168.51 69.9108C168.51 70.1786 168.331 70.3572 168.064 70.3572L168.599 71.1608H168.331L167.885 70.3572H167.528V71.1608ZM167.796 70.2679C168.064 70.2679 168.331 70.2679 168.331 70.0001C168.331 69.7322 168.153 69.7322 167.885 69.7322H167.528V70.3572H167.796V70.2679Z" fill="#707070"/>
<path d="M0.535278 57.0535L23.9072 2.76782H39.2506L39.5182 57.0535H26.6725L27.0294 46.4285H17.1275L13.3809 56.9643H0.535278V57.0535ZM29.5271 12.5893H29.3487L20.5174 36.875H27.9214L29.5271 12.5893Z" fill="#707070"/>
<path d="M54.5047 57.0535H41.7483L53.2558 2.76782H71.8106C82.2477 2.76782 86.5296 6.96425 84.2102 17.7678C83.0505 23.4821 80.8204 27.6785 74.9328 30.0893V30.2678C78.3226 31.0714 80.2852 33.4821 79.7499 37.3214C79.2147 41.6964 77.2522 50.9821 77.2522 54.4643C77.4306 55.1785 77.609 55.8035 78.055 56.3392L77.8766 57.0535H64.0497C63.8713 56.0714 63.8713 55 63.9605 53.9285C64.7634 49.1071 66.0122 44.6428 66.3691 41.3393C66.7259 38.0357 66.1907 35.8035 63.2469 35.625H59.0542L54.5047 57.0535ZM61.1059 25.8035H65.477C69.1344 25.8035 70.7401 22.4107 71.4538 19.1071C72.7919 12.6785 70.2049 12.4107 63.9605 12.5L61.1059 25.8035Z" fill="#707070"/>
<path d="M108.831 21.6963L109.545 18.2142C110.526 13.5713 109.366 11.1606 106.958 11.1606C103.033 11.0713 101.605 13.3035 100.802 16.7856L95.0933 43.7499C94.4689 46.7856 95.2717 48.5713 98.6616 48.5713C103.033 48.5713 104.282 44.107 104.995 40.7142L106.066 35.8035H118.822L117.395 42.4999C115.432 51.8749 108.653 58.3928 95.6286 58.3928C83.9426 58.3928 80.642 52.1428 83.0506 41.0713L87.7785 18.7499C90.2762 6.96418 96.8774 1.42847 108.563 1.42847C119.446 1.42847 124.977 6.07132 122.569 17.1428L121.587 21.6963H108.831Z" fill="#707070"/>
<path d="M114.897 57.0535L138.269 2.76782H153.612L153.88 57.0535H140.945L141.391 46.5178H131.4L127.653 57.0535H114.897ZM143.8 12.5893H143.621L134.79 36.875H142.194L143.8 12.5893Z" fill="#707070"/>
<path d="M156.378 57.0535L167.885 2.76782H180.642L169.134 57.0535H156.378Z" fill="#707070"/>
<path d="M186.44 57.0535H173.684L185.191 2.76782H203.746C214.183 2.76782 218.465 6.96425 216.146 17.7678C214.897 23.5714 212.666 27.6785 206.779 30.1785V30.3571C210.169 31.1607 212.131 33.5714 211.596 37.4107C211.061 41.7857 209.098 51.0714 209.098 54.5535C209.277 55.2678 209.455 55.8928 209.901 56.4285L209.723 57.1428H195.807C195.628 56.1607 195.628 55.0893 195.717 54.0178C196.52 49.2857 197.769 44.7321 198.126 41.4285C198.483 38.125 197.948 35.8928 195.004 35.7143H190.811L186.44 57.0535ZM193.13 25.8035H197.502C201.159 25.8035 202.765 22.4107 203.478 19.1071C204.816 12.6785 202.229 12.4107 195.985 12.5L193.13 25.8035Z" fill="#707070"/>
<path d="M215.253 49.7322C217.305 49.7322 219 51.3393 219 53.4822C219 55.625 217.305 57.2322 215.253 57.2322C213.202 57.2322 211.507 55.625 211.507 53.4822C211.507 51.3393 213.202 49.7322 215.253 49.7322ZM215.253 56.6965C216.948 56.6965 218.376 55.2679 218.376 53.4822C218.376 51.6965 217.037 50.2679 215.253 50.2679C213.469 50.2679 212.131 51.6965 212.131 53.4822C212.131 55.2679 213.469 56.6965 215.253 56.6965ZM213.826 51.25H215.521C216.591 51.25 217.037 51.6965 217.037 52.5C217.037 53.3036 216.502 53.6607 215.878 53.6607L217.127 55.625H216.413L215.253 53.75H214.54V55.625H213.826V51.25ZM214.45 53.2143H215.164C215.789 53.2143 216.324 53.2143 216.324 52.5C216.324 51.875 215.789 51.7857 215.343 51.7857H214.45V53.2143Z" fill="#707070"/>
</svg>
