<svg width="232" height="80" viewBox="0 0 232 80" fill="none" xmlns="http://www.w3.org/2000/svg">
<g clip-path="url(#clip0_2001_285)">
<path d="M14.4772 38.0909L13.6578 42C13.0204 45.1818 13.3846 48 17.573 48C20.5777 48 22.4898 45.2727 23.1271 42.4545C24.1287 37.8182 20.6687 36 17.664 34C14.2041 31.7273 11.1994 29.5455 9.37831 26.8182C7.64833 24 6.91992 20.6364 8.01254 15.7273C10.1978 5.27273 17.573 0 27.5887 0C38.8791 0 43.0675 7.54546 40.2449 17.9091H28.3171C28.8634 14.6364 29.956 10.2727 25.7676 9.90909C23.1271 9.72727 21.3061 11.1818 20.4866 13.6364C19.394 16.9091 20.7598 18.6364 22.945 20.4545C27.1334 23.5455 30.9576 25.4545 33.416 28.2727C35.8744 31.0909 36.876 34.7273 35.4191 41.4545C33.1428 52.0909 26.0408 58 15.2056 58C3.27784 58 -0.273175 51.3636 1.27471 44.0909L2.54943 38.1818H14.4772V38.0909Z" fill="#707070"/>
<path d="M45.799 1.36353H79.4882L77.1209 12.4544H66.6499L57.1805 56.6363H44.1601L53.5385 12.4544H43.4317L45.799 1.36353Z" fill="#707070"/>
<path d="M108.625 39C105.984 51.4545 100.248 57.9091 87.1366 57.9091C74.0251 57.9091 70.8383 51.4545 73.4788 39L78.3045 16.5455C80.4898 5.90909 88.0471 0 99.4285 0C110.81 0 115.636 5.90909 113.451 16.5455L108.625 39ZM100.248 17.3636C100.976 14 101.523 9.90909 97.2433 9.90909C93.146 9.90909 91.6891 14 91.0518 17.3636L86.226 40.0909C85.5887 43.2727 85.0424 48 89.2307 48C93.4191 48 94.6939 43.2727 95.4223 40.0909L100.248 17.3636Z" fill="#707070"/>
<path d="M147.777 39C145.137 51.4545 139.4 57.9091 126.289 57.9091C113.177 57.9091 109.991 51.4545 112.631 39L117.457 16.5455C119.551 5.90909 127.199 0 138.581 0C149.962 0 154.788 5.90909 152.603 16.5455L147.777 39ZM139.4 17.3636C140.129 14 140.675 9.90909 136.396 9.90909C132.298 9.90909 130.841 14 130.204 17.3636L125.378 40.0909C124.741 43.2727 124.195 48 128.383 48C132.571 48 133.846 43.2727 134.575 40.0909L139.4 17.3636Z" fill="#707070"/>
<path d="M147.686 56.6363L159.432 1.36353H173.545C178.279 1.36353 183.925 1.54534 187.567 3.90898C191.937 6.81807 191.664 12.2726 190.48 17.5453L185.29 42.0908C184.016 47.6363 181.466 51.6363 177.187 53.9999C173.363 56.1817 169.083 56.5453 165.077 56.5453H147.686V56.6363ZM162.801 46.6363C171.36 47.1817 172.179 43.7272 173.545 36.2726L177.369 18.1817C178.644 11.7272 176.641 11.3635 170.267 11.1817L162.801 46.6363Z" fill="#707070"/>
<path d="M208.418 19.3636H208.6L219.071 1.27271H232.091L211.878 33.3636L206.961 56.5454H193.94L198.857 33.3636L192.575 1.27271H205.777L208.418 19.3636Z" fill="#707070"/>
<path d="M213.972 49.1819C216.066 49.1819 217.796 50.8182 217.796 53.0001C217.796 55.1819 216.066 56.8182 213.972 56.8182C211.878 56.8182 210.148 55.1819 210.148 53.0001C210.148 50.8182 211.878 49.1819 213.972 49.1819ZM213.972 56.2728C215.702 56.2728 217.159 54.8182 217.159 53.0001C217.159 51.1819 215.793 49.7273 213.972 49.7273C212.151 49.7273 210.785 51.1819 210.785 53.0001C210.876 54.8182 212.242 56.2728 213.972 56.2728ZM212.515 50.7273H214.245C215.338 50.7273 215.793 51.1819 215.793 52.0001C215.793 52.8183 215.246 53.1819 214.609 53.1819L215.884 55.1819H215.155L213.972 53.2728H213.243V55.1819H212.515V50.7273ZM213.243 52.7273H213.972C214.609 52.7273 215.155 52.7273 215.155 52.0001C215.155 51.3637 214.609 51.2728 214.154 51.2728H213.243V52.7273Z" fill="#707070"/>
<path d="M206.597 65H0.63739V80H206.597V65Z" fill="#F2F2F2"/>
<path d="M118.185 68.8181H119.005L122.1 76.7272H121.281L120.279 74.2727H116.637L115.727 76.7272H114.907L118.185 68.8181ZM117.002 73.5454H120.097L118.549 69.4545L117.002 73.5454Z" fill="#707070"/>
<path d="M122.92 68.8182H123.739L128.383 75.4546V68.7273H129.111V76.6364H128.292L123.648 69.9091V76.6364H122.92V68.8182Z" fill="#707070"/>
<path d="M133.573 68.8181H139.491V70.2727H135.303V71.9999H139.127V73.3636H135.303V75.2727H139.582V76.7272H133.573V68.8181Z" fill="#707070"/>
<path d="M141.677 74.091C141.677 75.1819 142.496 75.5456 143.407 75.5456C144.044 75.5456 144.954 75.3637 144.954 74.5456C144.954 73.7274 143.771 73.5456 142.587 73.2728C141.403 73.0001 140.22 72.5456 140.22 71.0001C140.22 69.3637 141.768 68.6365 143.224 68.6365C144.863 68.6365 146.411 69.3638 146.411 71.1819H144.772C144.681 70.1819 144.044 70.0001 143.224 70.0001C142.678 70.0001 142.041 70.2728 142.041 70.9092C142.041 71.5456 142.405 71.6365 144.408 72.091C144.954 72.2728 146.776 72.6365 146.776 74.3638C146.776 75.8183 145.592 76.9092 143.498 76.9092C141.768 76.9092 140.129 76.0001 140.129 74.091H141.677Z" fill="#707070"/>
<path d="M149.689 68.8181H151.51L154.515 76.7272H152.694L152.056 74.9999H149.052L148.414 76.7272H146.684L149.689 68.8181ZM149.507 73.6363H151.601L150.6 70.7272L149.507 73.6363Z" fill="#707070"/>
<path d="M155.152 68.8181H158.885C160.433 68.8181 161.435 69.2727 161.435 70.8181C161.435 71.6363 161.071 72.0908 160.342 72.4545C161.344 72.7272 161.799 73.4545 161.799 74.4545C161.799 76.0908 160.433 76.7272 158.976 76.7272H155.152V68.8181ZM156.882 71.9999H158.612C159.25 71.9999 159.705 71.7272 159.705 71.0908C159.705 70.3636 159.159 70.1818 158.521 70.1818H156.882V71.9999ZM156.882 75.3636H158.794C159.523 75.3636 160.069 75.1818 160.069 74.3636C160.069 73.5454 159.523 73.2727 158.794 73.2727H156.882V75.3636Z" fill="#707070"/>
<path d="M168.264 68.8181H171.633C172.998 68.8181 174.182 69.2727 174.182 70.7272C174.182 71.5454 173.636 72.3636 172.816 72.5454C173.818 72.7272 174.455 73.4545 174.455 74.4545C174.455 75.1818 174.182 76.7272 171.633 76.7272H168.264V68.8181ZM168.992 72.2727H171.633C172.816 72.2727 173.454 71.6363 173.454 70.909C173.454 69.909 172.816 69.4545 171.633 69.4545H168.992V72.2727ZM168.992 76.0908H171.633C172.725 76.0908 173.727 75.7272 173.727 74.4545C173.727 73.4545 172.998 72.909 171.633 72.909H168.992V76.0908Z" fill="#707070"/>
<path d="M175.002 68.8181H178.644C179.918 68.8181 181.102 69.4545 181.102 70.909C181.102 71.909 180.556 72.7272 179.554 72.909C180.556 72.9999 180.92 73.7272 180.92 74.7272C180.92 75.2727 180.92 76.3636 181.284 76.7272H180.465C180.283 76.4545 180.283 75.8181 180.283 75.4545C180.192 74.3636 180.1 73.0908 178.735 73.1818H175.73V76.7272H175.002V68.8181ZM175.73 72.5454H178.553C179.463 72.5454 180.283 71.9999 180.283 70.9999C180.283 69.9999 179.736 69.4545 178.553 69.4545H175.73V72.5454Z" fill="#707070"/>
<path d="M184.926 68.8181H185.746L188.841 76.7272H188.022L187.02 74.2727H183.378L182.468 76.7272H181.648L184.926 68.8181ZM183.743 73.5454H186.838L185.29 69.4545L183.743 73.5454Z" fill="#707070"/>
<path d="M189.661 68.8181H190.48L195.124 75.5454V68.8181H195.852V76.7272H195.033L190.389 69.9999V76.7272H189.661V68.8181Z" fill="#707070"/>
<path d="M196.763 68.8181H199.494C201.862 68.909 203.137 70.1818 203.137 72.8181C203.137 75.4545 201.862 76.7272 199.494 76.8181H196.763V68.8181ZM197.582 76.0908H199.221C201.498 76.0908 202.499 75.1818 202.499 72.8181C202.499 70.4545 201.498 69.4545 199.221 69.5454H197.582V76.0908Z" fill="#707070"/>
<path d="M164.986 70.1819C164.986 71.0001 164.349 71.7274 163.438 71.7274C162.619 71.7274 161.89 71.091 161.89 70.1819C161.89 69.3637 162.527 68.6365 163.438 68.6365C164.349 68.7274 164.986 69.3637 164.986 70.1819ZM162.254 70.1819C162.254 70.9092 162.801 71.4547 163.529 71.4547C164.257 71.4547 164.804 70.9092 164.804 70.1819C164.804 69.4547 164.257 68.9092 163.529 68.9092C162.801 68.9092 162.254 69.4547 162.254 70.1819ZM163.165 71.091H162.983V69.3638H163.62C163.984 69.3638 164.166 69.5456 164.166 69.8183C164.166 70.091 163.984 70.2728 163.711 70.2728L164.257 71.091H163.984L163.529 70.2728H163.165V71.091ZM163.438 70.091C163.711 70.091 163.984 70.091 163.984 69.8183C163.984 69.5456 163.802 69.5456 163.529 69.5456H163.165V70.1819H163.438V70.091Z" fill="#707070"/>
</g>
<defs>
<clipPath id="clip0_2001_285">
<rect width="232" height="80" fill="white"/>
</clipPath>
</defs>
</svg>
