<svg width="201" height="80" viewBox="0 0 201 80" fill="none" xmlns="http://www.w3.org/2000/svg">
<path d="M193.293 65.3982H0.177124V80H193.293V65.3982Z" fill="#F2F2F2"/>
<path d="M107.277 69.0266H108.074L111.086 76.7257H110.289L109.314 74.3363H105.771L104.885 76.7257H104.088L107.277 69.0266ZM106.125 73.7169H109.137L107.631 69.7346L106.125 73.7169Z" fill="#707070"/>
<path d="M111.795 69.0266H112.592L117.11 75.5753V69.0266H117.818V76.7257H117.021L112.503 70.1771V76.7257H111.795V69.0266Z" fill="#707070"/>
<path d="M122.159 69.0266H127.917V70.4425H123.842V72.124H127.563V73.4514H123.842V75.3098H128.006V76.7257H122.159V69.0266Z" fill="#707070"/>
<path d="M130.132 74.1593C130.132 75.2213 130.929 75.5753 131.815 75.5753C132.435 75.5753 133.321 75.3983 133.321 74.6018C133.321 73.8054 132.169 73.6284 131.018 73.3629C129.866 73.0974 128.714 72.6549 128.714 71.1505C128.714 69.5576 130.22 68.8496 131.638 68.8496C133.232 68.8496 134.738 69.5576 134.738 71.3275H133.055C132.966 70.354 132.346 70.177 131.549 70.177C131.018 70.177 130.398 70.4425 130.398 71.062C130.398 71.6815 130.752 71.77 132.701 72.2124C133.232 72.3894 135.004 72.7434 135.004 74.4248C135.004 75.8408 133.852 76.9027 131.815 76.9027C130.132 76.9027 128.537 76.0178 128.537 74.1593H130.132Z" fill="#707070"/>
<path d="M137.839 69.0266H139.61L142.534 76.7257H140.762L140.142 75.0443H137.307L136.687 76.7257H135.004L137.839 69.0266ZM137.75 73.7169H139.788L138.813 70.885L137.75 73.7169Z" fill="#707070"/>
<path d="M143.154 69.0266H146.786C148.292 69.0266 149.266 69.4691 149.266 70.9735C149.266 71.77 148.912 72.2125 148.203 72.5664C149.178 72.8319 149.621 73.5399 149.621 74.5133C149.621 76.1063 148.292 76.7257 146.874 76.7257H143.154V69.0266ZM144.837 72.124H146.52C147.14 72.124 147.583 71.8585 147.583 71.239C147.583 70.531 147.052 70.354 146.431 70.354H144.837V72.124ZM144.837 75.3983H146.697C147.406 75.3983 147.937 75.2213 147.937 74.4248C147.937 73.6284 147.406 73.3629 146.697 73.3629H144.837V75.3983Z" fill="#707070"/>
<path d="M155.999 69.0266H159.276C160.605 69.0266 161.757 69.4691 161.757 70.885C161.757 71.6815 161.225 72.4779 160.428 72.6549C161.402 72.8319 162.022 73.5399 162.022 74.5133C162.022 75.2213 161.757 76.7257 159.276 76.7257H155.999V69.0266ZM156.707 72.3894H159.276C160.428 72.3894 161.048 71.77 161.048 71.062C161.048 70.0886 160.428 69.6461 159.276 69.6461H156.707V72.3894ZM156.707 76.1063H159.276C160.339 76.1063 161.314 75.7523 161.314 74.5133C161.314 73.5399 160.605 73.0089 159.276 73.0089H156.707V76.1063Z" fill="#707070"/>
<path d="M162.554 69.0266H166.097C167.338 69.0266 168.489 69.6461 168.489 71.062C168.489 72.0355 167.958 72.8319 166.983 73.0089C167.958 73.0974 168.312 73.8054 168.312 74.7788C168.312 75.3098 168.312 76.3717 168.666 76.7257H167.869C167.692 76.4602 167.692 75.8408 167.692 75.4868C167.603 74.4248 167.515 73.1859 166.186 73.2744H163.44V76.7257H162.731V69.0266H162.554ZM163.263 72.6549H166.009C166.895 72.6549 167.692 72.124 167.692 71.1505C167.692 70.1771 167.16 69.6461 166.009 69.6461H163.263V72.6549Z" fill="#707070"/>
<path d="M172.21 69.0266H173.007L176.019 76.7257H175.222L174.247 74.3363H170.704L169.818 76.7257H169.021L172.21 69.0266ZM171.058 73.7169H174.07L172.564 69.7346L171.058 73.7169Z" fill="#707070"/>
<path d="M176.728 69.0266H177.525L182.043 75.5753V69.0266H182.751V76.7257H181.954L177.436 70.1771V76.7257H176.728V69.0266Z" fill="#707070"/>
<path d="M183.726 69.0266H186.383C188.687 69.1151 189.927 70.354 189.927 72.9204C189.927 75.4868 188.687 76.7257 186.383 76.8142H183.726V69.0266ZM184.435 76.1063H186.029C188.244 76.1063 189.218 75.2213 189.218 72.9204C189.218 70.6195 188.244 69.6461 186.029 69.7346H184.435V76.1063Z" fill="#707070"/>
<path d="M152.81 70.4424C152.81 71.2389 152.19 71.9468 151.304 71.9468C150.506 71.9468 149.798 71.3274 149.798 70.4424C149.798 69.646 150.418 68.938 151.304 68.938C152.19 68.938 152.81 69.5575 152.81 70.4424ZM150.063 70.4424C150.063 71.1504 150.595 71.6813 151.304 71.6813C152.012 71.6813 152.544 71.1504 152.544 70.4424C152.544 69.7344 152.012 69.2035 151.304 69.2035C150.595 69.115 150.063 69.7344 150.063 70.4424ZM151.038 71.2389H150.861V69.5575H151.481C151.835 69.5575 152.012 69.7344 152.012 69.9999C152.012 70.2654 151.835 70.4424 151.569 70.4424L152.101 71.2389H151.835L151.392 70.4424H151.038V71.2389ZM151.304 70.3539C151.569 70.3539 151.835 70.3539 151.835 70.0884C151.835 69.8229 151.658 69.8229 151.392 69.8229H151.038V70.4424H151.304V70.3539Z" fill="#707070"/>
<path d="M2.30322 3.45117H35.0798L32.7766 14.1591H22.5892L13.3764 57.2565H0.708682L9.92155 14.1591H0L2.30322 3.45117Z" fill="#707070"/>
<path d="M68.1221 41.1503H68.2107L80.2583 3.45117H92.2173L71.7541 57.2565H57.5805L61.744 19.3804H61.5668L49.3421 57.2565H35.3456L37.7374 3.45117H49.9622L45.7101 41.2388L45.8872 41.0618L58.9979 3.45117H71.2226L68.1221 41.1503Z" fill="#707070"/>
<path d="M83.4474 57.2565L94.8749 3.45117H123.842L121.539 14.1591H105.239L103.113 24.0706H118.882L116.578 34.8671H100.81L98.3297 46.46H115.515L113.212 57.2565H83.4474Z" fill="#707070"/>
<path d="M146.432 22.2123L147.14 18.7609C148.115 14.1592 146.963 11.7698 144.571 11.7698C140.673 11.6813 139.256 13.8937 138.459 17.345L132.878 44.0707C132.258 47.0795 133.055 48.8494 136.421 48.8494C140.762 48.8494 142.002 44.4247 142.711 41.0618L143.774 36.1946H156.442L155.024 42.8317C153.075 52.1238 146.343 58.584 133.409 58.584C121.805 58.584 118.527 52.3893 120.919 41.4158L125.614 19.2919C128.006 7.6105 134.561 2.12378 146.166 2.12378C156.973 2.12378 162.465 6.72555 160.074 17.699L159.099 22.2123H146.432Z" fill="#707070"/>
<path d="M193.647 40.0884C191.079 52.2123 185.498 58.4955 172.741 58.4955C159.985 58.4955 156.885 52.2123 159.454 40.0884L164.149 18.23C166.275 7.87599 173.627 2.12378 184.7 2.12378C195.774 2.12378 200.469 7.87599 198.342 18.23L193.647 40.0884ZM185.498 19.1149C186.206 15.8406 186.738 11.8583 182.574 11.8583C178.588 11.8583 177.171 15.8406 176.551 19.1149L171.855 41.2388C171.235 44.3362 170.704 48.9379 174.779 48.9379C178.854 48.9379 180.094 44.3362 180.803 41.2388L185.498 19.1149Z" fill="#707070"/>
<path d="M194.356 50.6194C196.394 50.6194 198.077 52.2123 198.077 54.3362C198.077 56.4601 196.394 58.053 194.356 58.053C192.319 58.053 190.636 56.4601 190.636 54.3362C190.547 52.2123 192.23 50.6194 194.356 50.6194ZM194.356 57.522C196.039 57.522 197.457 56.1061 197.457 54.3362C197.457 52.5663 196.128 51.1504 194.356 51.1504C192.584 51.1504 191.256 52.5663 191.256 54.3362C191.256 56.1946 192.584 57.522 194.356 57.522ZM192.85 52.2123H194.533C195.596 52.2123 196.039 52.6548 196.039 53.4512C196.039 54.2477 195.508 54.6017 194.888 54.6017L196.128 56.5486H195.419L194.268 54.6902H193.559V56.5486H192.85V52.2123ZM193.559 54.0707H194.268C194.888 54.0707 195.419 54.0707 195.419 53.3627C195.419 52.7433 194.888 52.6548 194.445 52.6548H193.559V54.0707Z" fill="#707070"/>
</svg>
