<svg width="20" height="20" fill="none" xmlns="http://www.w3.org/2000/svg"><path d="M3.006 9.067s7.26-3.058 9.779-4.135c.965-.43 4.238-1.809 4.238-1.809s1.511-.603 1.385.861c-.042.603-.378 2.714-.713 4.996-.504 3.23-1.05 6.762-1.05 6.762s-.083.99-.797 1.163c-.713.172-1.888-.603-2.098-.775-.168-.13-3.148-2.067-4.239-3.015-.294-.258-.63-.775.042-1.378A162.15 162.15 0 0013.96 7.43c.503-.517 1.007-1.723-1.091-.259-2.98 2.11-5.918 4.092-5.918 4.092s-.671.43-1.93.043c-1.26-.387-2.728-.904-2.728-.904s-1.007-.646.713-1.335z" fill="#fff"/></svg>