<svg width="20" height="20" fill="none" xmlns="http://www.w3.org/2000/svg"><path d="M5.871 16.452v-.859a.086.086 0 00-.043-.09A4.964 4.964 0 013.86 14.44a4.651 4.651 0 01-.998-1.28 6.953 6.953 0 01-.706-2.22c-.135-.97-.182-1.95-.14-2.93.009-.456.032-.907.085-1.363a8.235 8.235 0 01.654-2.515 4.356 4.356 0 012.2-2.215 9.14 9.14 0 012.101-.66c.711-.134 1.43-.216 2.154-.246a19.707 19.707 0 011.954.029c.931.039 1.854.191 2.747.455a6.95 6.95 0 011.87.849c.562.382 1.017.9 1.321 1.504a7.47 7.47 0 01.72 2.245c.079.464.13.932.154 1.402.034.582.03 1.166.008 1.746a19.32 19.32 0 01-.144 1.71 6.297 6.297 0 01-.777 2.425 4.503 4.503 0 01-2.473 2.009c-.714.247-1.45.424-2.2.526-.548.075-1.098.13-1.65.152-.422.019-.845.014-1.267.007-.24 0-.478-.023-.716-.044a.121.121 0 00-.123.052c-.481.573-.981 1.13-1.485 1.685a1.402 1.402 0 01-.315.26.59.59 0 01-.887-.327 1.543 1.543 0 01-.073-.482c-.002-.257-.002-.51-.002-.763zm.583 1.088l.061-.057 1.092-1.202 1.26-1.388a.198.198 0 01.183-.08c.143.014.286.02.43.02.497 0 .994 0 1.49-.034.452-.035.902-.09 1.35-.16a13.76 13.76 0 001.428-.325c1.047-.279 1.857-.875 2.365-1.84.3-.595.49-1.238.556-1.899.08-.622.128-1.249.143-1.876a12.05 12.05 0 00-.162-2.356 6.619 6.619 0 00-.487-1.635c-.296-.649-.714-1.185-1.36-1.53-.988-.529-2.058-.765-3.161-.885a13.386 13.386 0 00-.94-.064 17.112 17.112 0 00-1.929.01c-.462.035-.922.096-1.376.185a6.91 6.91 0 00-1.92.648c-.35.175-.667.408-.939.688a4.315 4.315 0 00-.944 1.697 8.671 8.671 0 00-.35 2.253 16.92 16.92 0 00.03 2.289c.037.453.114.902.228 1.342.17.687.5 1.324.963 1.862.5.548 1.146.946 1.864 1.146.09.027.131.058.131.16-.008.372 0 .746 0 1.119l-.006 1.912z" fill="#fff"/><path d="M5.538 5.962c-.01-.284.146-.49.335-.675.248-.236.522-.444.816-.62a.66.66 0 01.846.137c.356.37.675.774.951 1.206.137.195.24.41.306.638a.514.514 0 01-.13.51 4.64 4.64 0 01-.482.41.552.552 0 00-.19.578c.105.49.343.943.687 1.31.42.506.959.901 1.57 1.15.15.076.323.1.488.066a.448.448 0 00.23-.15c.092-.115.191-.226.274-.35a.723.723 0 01.989-.193c.443.255.862.55 1.25.882.092.077.188.153.28.232a.617.617 0 01.2.72 1.94 1.94 0 01-.349.576c-.185.256-.422.47-.694.633a.974.974 0 01-.869.055 11.5 11.5 0 01-2.934-1.71 11.427 11.427 0 01-2.25-2.462 10.18 10.18 0 01-1.243-2.477 3.132 3.132 0 01-.079-.323.687.687 0 01-.002-.143zm4.517-1.379c.885.017 1.737.34 2.406.915a3.739 3.739 0 011.257 2.23c.057.315.088.634.091.954 0 .075-.02.13-.1.137-.082.008-.103-.06-.103-.13a4.307 4.307 0 00-.392-1.878 3.477 3.477 0 00-.986-1.243 3.519 3.519 0 00-1.44-.681 3.894 3.894 0 00-.85-.099.293.293 0 01-.082-.01.091.091 0 01-.064-.11.081.081 0 01.053-.074.083.083 0 01.032-.006c.059-.007.119-.005.178-.005z" fill="#fff"/><path d="M12.58 8.098a2.31 2.31 0 00-.964-1.84 2.486 2.486 0 00-1.163-.432c-.07-.009-.141-.013-.213-.02-.072-.008-.115-.038-.108-.11.006-.073.052-.1.13-.094 1.16.07 2.146.72 2.45 1.929.055.233.082.472.082.711v.065c0 .065-.042.108-.106.106a.106.106 0 01-.096-.07.103.103 0 01-.005-.042c-.01-.061-.008-.123-.008-.203z" fill="#fff"/><path d="M10.55 6.654c.635.043 1.078.352 1.2 1.022.015.086.025.172.031.26 0 .07-.015.129-.092.129-.078 0-.104-.052-.106-.13a1.252 1.252 0 00-.23-.718.97.97 0 00-.625-.347 1.419 1.419 0 00-.166-.021c-.091 0-.142-.046-.13-.115.011-.07.066-.083.117-.08z" fill="#fff"/></svg>